<?xml version="1.0" encoding="utf-8"?>
<!-- Generator: Adobe Illustrator 27.2.0, SVG Export Plug-In . SVG Version: 6.00 Build 0)  -->
<svg version="1.1" id="Layer_1" xmlns="http://www.w3.org/2000/svg" xmlns:xlink="http://www.w3.org/1999/xlink" x="0px" y="0px"
	 viewBox="0 0 65 65" style="enable-background:new 0 0 65 65;" xml:space="preserve">
<style type="text/css">
	.st0{fill:#FFFFFF;}
	.st0::hover{fill:orange}
</style>
<g>
	<circle cx="32.5" cy="32.5" r="25.9"/>
	<path class="st0" d="M45.1,18.4H19.9c-0.9,0-1.6,0.7-1.6,1.6v25.2c0,0.9,0.7,1.6,1.6,1.6h13.6v-11h-3.7v-4.3h3.7v-3.2
		c0-3.6,2.2-5.6,5.5-5.6c1.1,0,2.2,0,3.3,0.2v3.8H40c-1.8,0-2.1,0.9-2.1,2.1v2.7h4.2l-0.5,4.3h-3.7v11h7.2c0.9,0,1.6-0.7,1.6-1.6
		V19.9C46.6,19,46,18.3,45.1,18.4L45.1,18.4z"/>
</g>
</svg>
