<?xml version="1.0" encoding="utf-8"?>
<!-- Generator: Adobe Illustrator 27.2.0, SVG Export Plug-In . SVG Version: 6.00 Build 0)  -->
<svg version="1.1" id="Layer_1" xmlns="http://www.w3.org/2000/svg" xmlns:xlink="http://www.w3.org/1999/xlink" x="0px" y="0px"
	 viewBox="0 0 65 65" style="enable-background:new 0 0 65 65;" xml:space="preserve">
<style type="text/css">
	.st0{fill:#FFFFFF;}
</style>
<g>
	<circle cx="32.5" cy="32.5" r="25.9"/>
	<path class="st0" d="M32.5,20.6c3.9,0,4.3,0,5.9,0.1c0.9,0,1.8,0.2,2.7,0.5c1.3,0.5,2.3,1.5,2.8,2.8c0.3,0.9,0.5,1.8,0.5,2.7
		c0.1,1.5,0.1,2,0.1,5.9s0,4.3-0.1,5.9c0,0.9-0.2,1.8-0.5,2.7c-0.5,1.3-1.5,2.3-2.8,2.8c-0.9,0.3-1.8,0.5-2.7,0.5
		c-1.5,0.1-2,0.1-5.9,0.1s-4.3,0-5.9-0.1c-0.9,0-1.8-0.2-2.7-0.5c-1.2-0.5-2.2-1.5-2.7-2.8c-0.3-0.9-0.5-1.8-0.5-2.7
		c-0.1-1.5-0.1-2-0.1-5.9s0-4.3,0.1-5.9c0-0.9,0.2-1.8,0.5-2.7c0.5-1.2,1.5-2.2,2.7-2.7c0.9-0.3,1.8-0.5,2.7-0.5
		C28.2,20.7,28.6,20.7,32.5,20.6 M32.5,18c-3.9,0-4.4,0-6,0.1c-1.2,0-2.4,0.2-3.5,0.7c-2,0.8-3.5,2.3-4.3,4.3
		c-0.4,1.1-0.6,2.3-0.7,3.5c-0.1,1.5-0.1,2-0.1,6s0,4.4,0.1,6c0,1.2,0.3,2.4,0.7,3.5c0.8,2,2.3,3.5,4.3,4.3c1.1,0.4,2.3,0.7,3.5,0.7
		c1.5,0.1,2,0.1,6,0.1s4.4,0,6-0.1c1.2,0,2.4-0.2,3.5-0.7c2-0.8,3.5-2.3,4.3-4.3c0.4-1.1,0.7-2.3,0.7-3.5c0.1-1.5,0.1-2,0.1-6
		s0-4.4-0.1-6c0-1.2-0.2-2.4-0.7-3.5c-0.8-2-2.3-3.5-4.3-4.3c-1.1-0.4-2.3-0.6-3.5-0.7C37,18,36.5,18,32.5,18
		C32.5,18,32.5,18,32.5,18z"/>
	<path class="st0" d="M32.5,25.1c-4.1,0-7.4,3.3-7.4,7.4s3.3,7.4,7.4,7.4s7.4-3.3,7.4-7.4S36.6,25.1,32.5,25.1L32.5,25.1z
		 M32.5,37.3c-2.7,0-4.8-2.2-4.8-4.8s2.2-4.8,4.8-4.8s4.8,2.2,4.8,4.8l0,0C37.3,35.2,35.2,37.3,32.5,37.3z"/>
	<circle class="st0" cx="40.2" cy="24.8" r="1.7"/>
</g>
</svg>
