<?xml version="1.0" encoding="utf-8"?>
<!-- Generator: Adobe Illustrator 27.2.0, SVG Export Plug-In . SVG Version: 6.00 Build 0)  -->
<svg version="1.1" id="Layer_1" xmlns="http://www.w3.org/2000/svg" xmlns:xlink="http://www.w3.org/1999/xlink" x="0px" y="0px"
	 viewBox="0 0 65 65" style="enable-background:new 0 0 65 65;" xml:space="preserve">
<style type="text/css">
	.st0{fill:#FFFFFF;}
</style>
<g>
	<circle cx="32.5" cy="32.5" r="25.9"/>
	<path class="st0" d="M47,23.5c-1.1,0.5-2.2,0.8-3.4,0.9c1.2-0.7,2.2-1.9,2.6-3.3c-1.2,0.7-2.4,1.2-3.8,1.4c-2.2-2.4-6-2.5-8.4-0.3
		c-1.2,1.1-1.9,2.7-1.9,4.3c0,0.5,0,0.9,0.2,1.4c-4.8-0.2-9.2-2.5-12.3-6.2c-1.6,2.7-0.8,6.2,1.8,7.9c-1,0-1.9-0.3-2.7-0.7v0.1
		c0,2.8,2,5.3,4.8,5.8c-0.9,0.2-1.8,0.3-2.7,0.1c0.8,2.4,3,4.1,5.5,4.1c-2.1,1.7-4.7,2.5-7.4,2.5c-0.5,0-1,0-1.4-0.1
		c2.7,1.8,5.9,2.7,9.1,2.7c11,0,16.9-9.1,16.9-16.9v-0.8C45.2,25.7,46.2,24.7,47,23.5L47,23.5z"/>
</g>
</svg>
