<?xml version="1.0" encoding="UTF-8" standalone="no"?>
<!-- Created with Inkscape (http://www.inkscape.org/) -->

<svg
   version="1.1"
   id="svg2"
   xml:space="preserve"
   width="588.40002"
   height="225.61333"
   viewBox="0 0 588.40002 225.61333"
   sodipodi:docname="CCSACon logo-basic.eps"
   xmlns:inkscape="http://www.inkscape.org/namespaces/inkscape"
   xmlns:sodipodi="http://sodipodi.sourceforge.net/DTD/sodipodi-0.dtd"
   xmlns="http://www.w3.org/2000/svg"
   xmlns:svg="http://www.w3.org/2000/svg"><defs
     id="defs6" /><sodipodi:namedview
     id="namedview4"
     pagecolor="#ffffff"
     bordercolor="#666666"
     borderopacity="1.0"
     inkscape:pageshadow="2"
     inkscape:pageopacity="0.0"
     inkscape:pagecheckerboard="0" /><g
     id="g8"
     inkscape:groupmode="layer"
     inkscape:label="ink_ext_XXXXXX"
     transform="matrix(1.3333333,0,0,-1.3333333,0,225.61333)"><g
       id="g10"
       transform="scale(0.1)"><path
         d="m 1934.01,1423.93 c 0,148.13 120.09,268.21 268.22,268.21 148.13,0 268.21,-120.08 268.21,-268.21 0,-148.13 -120.08,-268.22 -268.21,-268.22 -148.13,0 -268.22,120.09 -268.22,268.22"
         style="fill:#38bed8;fill-opacity:1;fill-rule:nonzero;stroke:none"
         id="path12" /><path
         d="m 2363.07,1342.65 c 1.25,-3.35 1.94,-8.07 4.86,-10.08 2.09,-1.44 4.66,-3.98 5.52,-6.46 0.88,-2.57 -0.31,-5.34 0.13,-7.94 0.14,-0.79 3.85,-0.53 4.44,-0.68 1.28,-0.33 2.46,-1.1 3.4,-2.07 1.97,-2.04 2.71,-4.96 0.32,-7.04 -2.27,-1.99 -5.66,-2.88 -7.48,-5.4 -0.84,-1.18 -1.47,-2.59 -2.27,-3.79 -1.2,-1.78 -0.86,-2.64 -0.9,-4.68 -0.02,-1.82 -0.82,-3.31 -0.22,-5.14 0.57,-1.74 1.34,-2.32 1.33,-4.45 0,-2.65 -0.02,-7.78 -2.21,-9.72 -1.93,-1.71 -4.86,-1.01 -4.92,-4.54 -0.02,-1.37 0.19,-2.61 0.95,-3.73 0.67,-1 2.05,-1.29 2.41,-2.54 0.75,-2.59 -3.25,-3.82 -0.64,-6.53 1.28,-1.34 3.08,-0.63 4.66,-0.84 2.35,-0.29 2.5,-1.17 3.39,-3.23 0.27,-0.65 0.96,-1.94 0.94,-2.61 -0.08,-1.9 -0.17,-0.49 -1.4,-1.75 -1.41,-1.46 -0.19,-2.98 -1.22,-4.63 -1.07,-1.7 -92,-14.76 -95.78,-14.7 -1.28,0.03 -2.01,3.79 -2.12,5.01 2.7,-5.25 3.35,1.9 0.06,3.22 -1.22,0.48 -1.25,-1.17 -2.58,0.37 -1.92,2.2 -0.25,4.52 -0.76,6.95 -0.3,1.43 -1.33,2.46 -1.51,4.06 -0.2,1.82 0.23,3.37 -0.61,4.97 -1.53,2.89 -3.88,3.86 -5.8,6.18 -0.98,1.2 -1.75,2.62 -2.67,3.84 -1.07,1.42 -2.23,2.13 -3.47,3.22 -0.59,0.53 -0.67,1.2 -1.43,1.68 -0.68,0.43 -1.77,0.28 -2.51,0.61 -1.37,0.62 -2.13,2.04 -3.12,3.13 -1.22,1.35 -2.54,1.48 -4,2.28 -2.28,1.23 -4.44,3.28 -5.91,5.39 -0.93,1.32 -0.64,1.75 -2.39,2.22 -1.23,0.33 -2.98,0.07 -4.15,-0.35 0.92,-4.05 -3.11,0.24 -3.61,0.44 -0.96,0.41 -1.56,-0.94 -2.22,0.72 -0.39,0.96 0.35,2.11 0.39,2.94 0.17,3.65 -2.38,7.11 -5.9,8.19 -3.63,1.12 -6.53,-2.56 -10.09,-1.56 -1.72,0.49 -2.43,1.19 -4.24,1.34 -2.35,0.18 -2.45,0.37 -3.96,1.84 -2.27,2.22 -5.37,1.47 -6.96,4.63 -0.66,1.33 -0.55,3.09 -1.62,4.18 -1.09,1.1 -2.61,1 -3.92,1.6 -1.17,0.51 -2.34,1.49 -3.38,2.23 -3.71,2.65 -9.75,0.46 -13.82,1.79 -0.78,0.26 -1.22,1.08 -1.94,1.41 -1.67,0.73 -4.26,0.66 -6.03,1.1 -2.26,0.56 -4.23,0.13 -6.51,-0.01 -2.13,-0.13 -3.93,-1.07 -5.98,-0.9 -1.04,1.09 -1.09,2.86 -2.09,3.94 -0.9,0.97 -2.47,1.01 -3.29,2.08 -1.28,1.68 0,2.46 0.22,4.19 0.24,1.95 -1.1,2.39 -1.28,3.63 -0.28,1.86 1.43,1.38 2.01,3 0.87,2.45 -2.65,2.33 -2.93,3.44 -0.4,1.6 0.83,1.03 1.28,2.04 0.38,0.89 0.47,2.2 0.65,3.17 0.39,2.12 0.85,4.64 -0.96,6.28 -1.65,1.5 -4.53,0.71 -6.08,2.46 -0.87,0.99 -3.81,7.09 -0.52,6.48 -0.22,-0.6 0.1,-0.92 0.08,-1.49 3.53,0.34 -1.48,4.67 -2.56,5.26 -1.02,0.56 -2.39,0.66 -3.24,1.44 -0.96,0.89 -0.87,2.22 -1.39,3.28 -1.46,3.05 -4.85,4.41 -7.11,6.72 -1.23,1.25 -1.48,2.37 -2.19,3.85 -0.66,1.39 -2.06,2.1 -2.78,3.48 -0.95,1.87 0.34,4.07 -1.33,5.74 -1.31,1.31 -3.09,1.08 -4.41,2.51 -1.87,2.02 -1.89,4.87 -3.86,6.47 -1.76,1.43 -4.47,1.42 -5.69,3.6 -0.43,0.8 0.1,2.4 -0.04,3.3 -0.17,1.17 -0.51,1.45 -0.83,2.46 -0.39,1.21 -1.39,4.31 0.35,4.94 -0.11,1 -2.32,4.92 0.89,3.93 0.93,-2.54 2.83,1.05 3.21,2.04 1,2.55 1.41,6.04 0.57,8.7 -1.17,3.65 -2.98,5.26 -6.42,3.79 -2.36,-1.01 -2.25,-0.89 -4.01,0.84 -1.18,1.16 -2.43,2.06 -3.62,3.11 -1.79,1.55 -4.72,4.54 -5.68,6.8 -0.71,1.68 -0.06,2.85 -0.06,4.62 0,1.7 -0.38,3.58 -0.52,5.23 -0.19,2.22 -0.71,2.06 -1.98,3.64 -1.38,1.69 -0.84,2.88 -0.23,4.79 0.33,1.03 0.52,1.4 0.28,2.61 -0.17,0.83 -1.1,1.61 -0.68,2.69 0.58,1.46 3.06,2.11 4.43,1.51 0.36,-1.25 2.88,-4.24 0.07,-3.78 -0.09,-2.96 1.5,-4.72 3.97,-6 1.47,-0.77 4.73,-3.5 6.22,-3.29 -2.19,2.78 -2.55,10.26 -6.62,10.02 0.22,0.84 0.83,1.45 0.82,2.38 -0.73,-0.13 -1.56,-0.27 -2.38,-0.15 -0.14,1.62 0.74,3.14 0.41,4.64 -0.42,1.92 -2.5,0.99 -2.68,2.46 -0.28,2.35 5.26,2.97 6.53,2.74 1.53,-0.3 2.62,-0.71 4.23,-0.12 1.64,0.61 1.55,1.01 3.45,0.89 1.38,-0.09 3.15,-0.18 4.46,-0.45 1.21,-0.24 3.1,-1.18 2.48,1.36 -1.36,0.07 -2.96,0.58 -4.04,0.64 -1.17,0.08 -2.22,-0.83 -3.47,-0.57 0.05,0.69 -0.13,1.47 -0.07,2.16 -3.01,0.44 -2.56,-4.22 -6.05,-2.25 -1.68,0.94 -2.58,3.69 -4.12,4.71 -0.18,-0.32 3.13,-4.99 0.21,-3.73 -0.62,1.29 -3.55,3.77 -5.12,2.59 -1.6,-1.2 0.01,-1.58 0.12,-2.46 0.18,-1.41 0.09,-1.72 -1.09,-2.86 1.09,-0.59 0.82,-1.86 -0.37,-2.25 -0.48,-1.73 1.25,-1.97 2.6,-2.22 0.42,-2.27 -2.66,-3.55 -4.43,-2.88 -1.37,0.53 -2.27,2.92 -3.77,3.38 -0.96,0.28 -1.36,-0.91 -2.47,0.19 -0.68,0.67 -0.04,1.75 -1.28,2.53 -1.41,0.88 -2.79,0.71 -4.07,1.78 -0.8,0.67 0.27,1.21 -1.27,1.42 -0.36,0.04 -0.48,-1.8 -1.47,-0.88 -0.76,0.72 0.37,1.33 0.48,1.67 0.51,1.57 0.7,1.94 0.28,3.56 -0.06,0.23 -1.28,3.11 -0.88,3.05 2.77,-0.38 2.28,-6.45 5.95,-6.17 0.34,1.89 -1.03,2.04 -1.7,3.31 -0.54,1.02 -0.55,2.11 -1.1,3.17 -0.67,1.32 -3.5,4.71 -4.96,3.27 -1.19,0.99 -0.62,2.34 -0.95,3.76 -0.32,1.41 -1,2.14 -1.9,3.21 -1.6,1.91 -3.37,3.1 -5.22,4.64 -1.67,1.4 -2.46,3.37 -3.75,5.12 -1.18,1.63 -2.3,2.14 -3.74,3.4 -2.22,1.95 -4.49,4.69 -5.07,7.68 -0.49,2.48 0.75,4.63 -0.09,7.13 -0.84,2.49 -1.75,5.06 -2.3,7.63 -0.67,3.17 1.06,5.96 1.18,9.15 0.06,1.89 0.54,3.65 0.67,5.35 0.13,1.72 -0.79,3.24 -1.12,4.9 -0.58,2.99 -2.69,5.57 -4,8.26 -1.21,2.5 -3,4.88 -4.47,7.12 -0.89,1.35 -1.87,1.6 -2.95,2.84 -1.27,1.44 -2.27,2.5 -3.59,3.77 -1.19,1.13 -1.48,2.22 -1.47,3.86 0,1.14 0.17,2.45 -0.01,3.57 -0.15,0.95 -0.85,1.74 -0.95,2.67 -0.18,1.72 0.57,1.19 1.13,2.46 0.4,0.91 0.26,1.98 0.71,2.9 0.29,0.59 3.69,7.47 4.05,7.53 0.35,0.07 0.7,0.07 1.05,0 -0.29,-0.45 -0.22,-1.2 -0.39,-1.71 1.51,-0.19 2.71,4.35 5.06,4.91 0.5,3.78 -3.89,-1.33 -4.16,-1.34 -0.24,1.62 1.08,3.03 1.81,4.36 1.41,2.61 1.26,4.58 0.88,7.25 -0.44,3.05 1.57,5.88 2.45,8.63 1.06,3.33 1.32,6.6 1.73,10.04 0.29,2.43 -0.32,1.88 -1.29,4.01 -0.75,1.64 0.22,3.75 -0.54,5.35 -0.71,1.5 -2.95,1.44 -3.3,2.89 -0.6,2.5 2.49,1.27 2.64,2.86 -4.54,1.51 0.51,3.71 -1.07,6.5 l 57.33,-3.4 74.81,-2.84 -1.19,-94.6 0.09,-33.6 188.32,-164.86"
         style="fill:#ffffff;fill-opacity:1;fill-rule:nonzero;stroke:none"
         id="path14" /><path
         d="m 1374.32,932.461 v 0.418 c 0,40.391 30.44,73.481 74.08,73.481 26.81,0 42.84,-8.938 56.03,-21.93 l -19.89,-22.934 c -10.96,9.945 -22.12,16.035 -36.33,16.035 -23.96,0 -41.22,-19.886 -41.22,-44.254 v -0.398 c 0,-24.367 16.86,-44.668 41.22,-44.668 16.23,0 26.18,6.5 37.34,16.648 l 19.9,-20.097 c -14.62,-15.629 -30.85,-25.375 -58.26,-25.375 -41.82,0 -72.87,32.273 -72.87,73.074"
         style="fill:#231f20;fill-opacity:1;fill-rule:nonzero;stroke:none"
         id="path16" /><path
         d="m 1652.68,921.301 -18.88,46.078 -18.88,-46.078 z m -32.88,83.639 h 28.82 l 60.9,-143.116 h -32.68 l -12.99,31.867 h -60.09 l -12.99,-31.867 h -31.87 l 60.9,143.116"
         style="fill:#231f20;fill-opacity:1;fill-rule:nonzero;stroke:none"
         id="path18" /><path
         d="m 1772.1,1003.92 h 31.27 V 890.246 h 70.84 V 861.824 H 1772.1 v 142.096"
         style="fill:#231f20;fill-opacity:1;fill-rule:nonzero;stroke:none"
         id="path20" /><path
         d="m 1939.83,1003.92 h 31.27 V 861.824 h -31.27 v 142.096"
         style="fill:#231f20;fill-opacity:1;fill-rule:nonzero;stroke:none"
         id="path22" /><path
         d="m 2047.26,1003.92 h 108.18 v -28.416 h -76.93 v -30.242 h 67.81 v -28.426 h -67.81 v -55.012 h -31.25 v 142.096"
         style="fill:#231f20;fill-opacity:1;fill-rule:nonzero;stroke:none"
         id="path24" /><path
         d="m 2316.9,932.461 v 0.418 c 0,24.348 -17.87,44.652 -43.05,44.652 -25.17,0 -42.62,-19.886 -42.62,-44.254 v -0.398 c 0,-24.367 17.86,-44.668 43.03,-44.668 25.17,0 42.64,19.902 42.64,44.25 z m -118.37,0 v 0.418 c 0,40.391 31.89,73.481 75.73,73.481 43.86,0 75.33,-32.68 75.33,-73.083 v -0.398 c 0,-40.402 -31.89,-73.492 -75.74,-73.492 -43.84,0 -75.32,32.683 -75.32,73.074"
         style="fill:#231f20;fill-opacity:1;fill-rule:nonzero;stroke:none"
         id="path26" /><path
         d="m 2464.73,934.898 c 15.23,0 23.96,8.122 23.96,20.098 v 0.414 c 0,13.395 -9.34,20.293 -24.57,20.293 h -31.06 v -40.805 z m -62.92,69.022 h 64.96 c 18.06,0 32.06,-5.072 41.41,-14.408 7.91,-7.918 12.17,-19.086 12.17,-32.481 v -0.406 c 0,-22.941 -12.39,-37.352 -30.44,-44.051 l 34.7,-50.75 h -36.53 l -30.45,45.473 h -24.57 v -45.473 h -31.25 v 142.096"
         style="fill:#231f20;fill-opacity:1;fill-rule:nonzero;stroke:none"
         id="path28" /><path
         d="m 2589.22,1003.92 h 28.82 l 66.59,-87.486 v 87.486 h 30.85 V 861.824 h -26.59 l -68.83,90.336 v -90.336 h -30.84 v 142.096"
         style="fill:#231f20;fill-opacity:1;fill-rule:nonzero;stroke:none"
         id="path30" /><path
         d="m 2791.68,1003.92 h 31.25 V 861.824 h -31.25 v 142.096"
         style="fill:#231f20;fill-opacity:1;fill-rule:nonzero;stroke:none"
         id="path32" /><path
         d="m 2980.69,921.301 -18.88,46.078 -18.88,-46.078 z m -32.88,83.639 h 28.83 l 60.88,-143.116 h -32.66 l -12.99,31.867 h -60.11 l -12.99,-31.867 h -31.86 l 60.9,143.116"
         style="fill:#231f20;fill-opacity:1;fill-rule:nonzero;stroke:none"
         id="path34" /><path
         d="m 78.0625,516.141 v 0.847 c 0,84.91 64.0005,154.461 155.7425,154.461 56.324,0 90.039,-18.769 117.773,-46.078 l -41.816,-48.223 c -23.043,20.911 -46.516,33.723 -76.383,33.723 -50.352,0 -86.617,-41.82 -86.617,-93.031 v -0.852 c 0,-51.207 35.41,-93.867 86.617,-93.867 34.141,0 55.043,13.649 78.516,34.988 l 41.816,-42.238 C 322.988,383 288.848,362.531 231.246,362.531 c -87.906,0 -153.1835,67.84 -153.1835,153.61"
         style="fill:#231f20;fill-opacity:1;fill-rule:nonzero;stroke:none"
         id="path36" /><path
         d="M 395.527,666.328 H 461.23 V 548.141 h 121.188 v 118.187 h 65.711 V 367.641 h -65.711 v 119.91 H 461.23 v -119.91 h -65.703 v 298.687"
         style="fill:#231f20;fill-opacity:1;fill-rule:nonzero;stroke:none"
         id="path38" /><path
         d="m 880.684,492.672 -39.688,96.859 -39.683,-96.859 z m -69.125,175.797 h 60.593 L 1000.16,367.641 h -68.699 l -27.309,67 h -126.3 l -27.309,-67 h -66.992 l 128.008,300.828"
         style="fill:#231f20;fill-opacity:1;fill-rule:nonzero;stroke:none"
         id="path40" /><path
         d="m 1167.86,521.262 c 32.01,0 50.35,17.07 50.35,42.238 v 0.852 c 0,28.16 -19.62,42.679 -51.63,42.679 h -65.29 v -85.769 z m -132.27,145.066 h 136.54 c 37.97,0 67.42,-10.656 87.05,-30.289 16.64,-16.641 25.6,-40.109 25.6,-68.269 v -0.848 c 0,-48.223 -26.03,-78.524 -64.01,-92.602 l 72.97,-106.679 h -76.81 l -64,95.578 h -51.64 v -95.578 h -65.7 v 298.687"
         style="fill:#231f20;fill-opacity:1;fill-rule:nonzero;stroke:none"
         id="path42" /><path
         d="m 1402.97,605.738 h -90.89 v 60.59 h 247.49 v -60.59 h -90.89 V 367.641 h -65.71 v 238.097"
         style="fill:#231f20;fill-opacity:1;fill-rule:nonzero;stroke:none"
         id="path44" /><path
         d="m 1599.25,666.328 h 225.29 v -58.449 h -160.01 v -60.59 h 140.82 v -58.461 h -140.82 v -62.726 h 162.15 v -58.461 h -227.43 v 298.687"
         style="fill:#231f20;fill-opacity:1;fill-rule:nonzero;stroke:none"
         id="path46" /><path
         d="m 2006.74,521.262 c 32.01,0 50.36,17.07 50.36,42.238 v 0.852 c 0,28.16 -19.63,42.679 -51.64,42.679 h -65.28 v -85.769 z m -132.27,145.066 h 136.55 c 37.96,0 67.41,-10.656 87.04,-30.289 16.65,-16.641 25.6,-40.109 25.6,-68.269 v -0.848 c 0,-48.223 -26.03,-78.524 -64,-92.602 l 72.96,-106.679 h -76.81 l -64,95.578 h -51.63 v -95.578 h -65.71 v 298.687"
         style="fill:#231f20;fill-opacity:1;fill-rule:nonzero;stroke:none"
         id="path48" /><path
         d="m 2269.17,411.172 38.81,46.508 c 26.89,-22.192 55.05,-36.27 89.18,-36.27 26.89,0 43.11,10.672 43.11,28.16 v 0.86 c 0,16.629 -10.25,25.172 -60.17,37.968 -60.17,15.364 -99,32 -99,91.321 v 0.851 c 0,54.192 43.53,90.032 104.55,90.032 43.52,0 80.64,-13.661 110.94,-37.981 l -34.13,-49.492 c -26.46,18.351 -52.49,29.441 -77.67,29.441 -25.18,0 -38.41,-11.519 -38.41,-26.031 v -0.848 c 0,-19.621 12.81,-26.031 64.45,-39.261 60.58,-15.782 94.71,-37.551 94.71,-89.598 v -0.863 c 0,-59.309 -45.21,-92.59 -109.66,-92.59 -45.22,0 -90.88,15.793 -126.71,47.793"
         style="fill:#231f20;fill-opacity:1;fill-rule:nonzero;stroke:none"
         id="path50" /><path
         d="m 2538.82,516.141 v 0.847 c 0,84.91 64.01,154.461 155.76,154.461 56.31,0 90.02,-18.769 117.76,-46.078 l -41.83,-48.223 c -23.04,20.911 -46.49,33.723 -76.36,33.723 -50.36,0 -86.64,-41.82 -86.64,-93.031 v -0.852 c 0,-51.207 35.43,-93.867 86.64,-93.867 34.13,0 55.04,13.649 78.5,34.988 l 41.82,-42.238 C 2783.75,383 2749.61,362.531 2692,362.531 c -87.89,0 -153.18,67.84 -153.18,153.61"
         style="fill:#231f20;fill-opacity:1;fill-rule:nonzero;stroke:none"
         id="path52" /><path
         d="M 2856.27,666.328 H 2922 V 548.141 h 121.18 v 118.187 h 65.72 V 367.641 h -65.72 v 119.91 H 2922 v -119.91 h -65.73 v 298.687"
         style="fill:#231f20;fill-opacity:1;fill-rule:nonzero;stroke:none"
         id="path54" /><path
         d="m 3405.45,516.141 v 0.847 c 0,51.203 -37.53,93.883 -90.44,93.883 -52.92,0 -89.62,-41.82 -89.62,-93.031 v -0.852 c 0,-51.207 37.55,-93.867 90.46,-93.867 52.91,0 89.6,41.809 89.6,93.02 z m -248.76,0 v 0.847 c 0,84.91 66.99,154.461 159.16,154.461 92.16,0 158.3,-68.687 158.3,-153.609 v -0.852 c 0,-84.906 -66.99,-154.457 -159.14,-154.457 -92.18,0 -158.32,68.699 -158.32,153.61"
         style="fill:#231f20;fill-opacity:1;fill-rule:nonzero;stroke:none"
         id="path56" /><path
         d="m 3757.48,516.141 v 0.847 c 0,51.203 -37.55,93.883 -90.46,93.883 -52.91,0 -89.62,-41.82 -89.62,-93.031 v -0.852 c 0,-51.207 37.56,-93.867 90.47,-93.867 52.91,0 89.61,41.809 89.61,93.02 z m -248.77,0 v 0.847 c 0,84.91 66.98,154.461 159.16,154.461 92.16,0 158.3,-68.687 158.3,-153.609 v -0.852 c 0,-84.906 -66.99,-154.457 -159.15,-154.457 -92.18,0 -158.31,68.699 -158.31,153.61"
         style="fill:#231f20;fill-opacity:1;fill-rule:nonzero;stroke:none"
         id="path58" /><path
         d="m 3873.96,666.328 h 65.72 V 427.379 h 148.91 v -59.738 h -214.63 v 298.687"
         style="fill:#231f20;fill-opacity:1;fill-rule:nonzero;stroke:none"
         id="path60" /><path
         d="m 4106.93,411.172 38.82,46.508 c 26.88,-22.192 55.05,-36.27 89.18,-36.27 26.88,0 43.1,10.672 43.1,28.16 v 0.86 c 0,16.629 -10.25,25.172 -60.16,37.968 -60.18,15.364 -99,32 -99,91.321 v 0.851 c 0,54.192 43.53,90.032 104.54,90.032 43.52,0 80.65,-13.661 110.94,-37.981 l -34.13,-49.492 c -26.46,18.351 -52.48,29.441 -77.66,29.441 -25.17,0 -38.41,-11.519 -38.41,-26.031 v -0.848 c 0,-19.621 12.81,-26.031 64.44,-39.261 60.59,-15.782 94.72,-37.551 94.72,-89.598 v -0.863 c 0,-59.309 -45.22,-92.59 -109.66,-92.59 -45.22,0 -90.88,15.793 -126.72,47.793"
         style="fill:#231f20;fill-opacity:1;fill-rule:nonzero;stroke:none"
         id="path62" /><path
         d="M 1233.64,950.352 0,962.09 1233.64,973.836 Z"
         style="fill:#231f20;fill-opacity:1;fill-rule:nonzero;stroke:none"
         id="path64" /><path
         d="M 3179.35,973.836 4412.99,962.09 3179.35,950.352 Z"
         style="fill:#231f20;fill-opacity:1;fill-rule:nonzero;stroke:none"
         id="path66" /><path
         d="M 1233.64,57.4492 0,69.1797 1233.64,80.9219 Z"
         style="fill:#231f20;fill-opacity:1;fill-rule:nonzero;stroke:none"
         id="path68" /><path
         d="M 3179.35,80.9219 4412.99,69.1797 3179.35,57.4492 Z"
         style="fill:#231f20;fill-opacity:1;fill-rule:nonzero;stroke:none"
         id="path70" /><path
         d="m 1308.79,73.0703 v 0.4102 c 0,40.3985 30.44,73.4805 74.09,73.4805 26.8,0 42.83,-8.93 56.02,-21.922 l -19.89,-22.937 c -10.96,9.949 -22.12,16.039 -36.33,16.039 -23.96,0 -41.21,-19.891 -41.21,-44.2504 v -0.4101 c 0,-24.3594 16.85,-44.6602 41.21,-44.6602 16.24,0 26.18,6.5 37.34,16.6485 l 19.9,-20.0899 C 1425.3,9.75 1409.07,0 1381.66,0 c -41.82,0 -72.87,32.2813 -72.87,73.0703"
         style="fill:#231f20;fill-opacity:1;fill-rule:nonzero;stroke:none"
         id="path72" /><path
         d="m 1613.54,73.0703 v 0.4102 c 0,24.3593 -17.86,44.6605 -43.03,44.6605 -25.17,0 -42.63,-19.891 -42.63,-44.2504 v -0.4101 c 0,-24.3594 17.86,-44.6602 43.04,-44.6602 25.16,0 42.62,19.9102 42.62,44.25 z m -118.34,0 v 0.4102 c 0,40.3985 31.87,73.4805 75.72,73.4805 43.84,0 75.31,-32.672 75.31,-73.0704 V 73.4805 C 1646.23,33.0781 1614.36,0 1570.51,0 1526.66,0 1495.2,32.6914 1495.2,73.0703"
         style="fill:#231f20;fill-opacity:1;fill-rule:nonzero;stroke:none"
         id="path74" /><path
         d="m 1714.7,144.531 h 28.83 l 66.59,-87.4919 v 87.4919 h 30.85 V 2.44141 h -26.59 L 1745.56,92.7695 V 2.44141 H 1714.7 V 144.531"
         style="fill:#231f20;fill-opacity:1;fill-rule:nonzero;stroke:none"
         id="path76" /><path
         d="m 1915.74,144.531 h 108.2 V 116.109 H 1947 V 85.8711 h 67.8 V 57.4492 H 1947 V 2.44141 h -31.26 V 144.531"
         style="fill:#231f20;fill-opacity:1;fill-rule:nonzero;stroke:none"
         id="path78" /><path
         d="m 2089.56,144.531 h 107.18 v -27.812 h -76.12 V 87.8906 h 66.99 V 60.082 h -66.99 V 30.25 h 77.14 V 2.44141 h -108.2 V 144.531"
         style="fill:#231f20;fill-opacity:1;fill-rule:nonzero;stroke:none"
         id="path80" /><path
         d="m 2329.16,75.5117 c 15.21,0 23.93,8.1172 23.93,20.0977 v 0.4101 c 0,13.4025 -9.33,20.2895 -24.55,20.2895 h -31.06 V 75.5117 Z m -62.94,69.0193 h 64.96 c 18.06,0 32.08,-5.082 41.41,-14.41 7.92,-7.922 12.17,-19.082 12.17,-32.4804 v -0.4101 c 0,-22.9414 -12.38,-37.3516 -30.45,-44.0391 l 34.72,-50.74999 h -36.54 l -30.45,45.45699 h -24.56 V 2.44141 h -31.26 V 144.531"
         style="fill:#231f20;fill-opacity:1;fill-rule:nonzero;stroke:none"
         id="path82" /><path
         d="m 2453.64,144.531 h 107.19 V 116.719 H 2484.7 V 87.8906 h 66.99 V 60.082 H 2484.7 V 30.25 h 77.13 V 2.44141 H 2453.64 V 144.531"
         style="fill:#231f20;fill-opacity:1;fill-rule:nonzero;stroke:none"
         id="path84" /><path
         d="m 2630.31,144.531 h 28.82 l 66.59,-87.4919 v 87.4919 h 30.86 V 2.44141 h -26.59 L 2661.17,92.7695 V 2.44141 h -30.86 V 144.531"
         style="fill:#231f20;fill-opacity:1;fill-rule:nonzero;stroke:none"
         id="path86" /><path
         d="m 2808.8,73.0703 v 0.4102 c 0,40.3985 30.45,73.4805 74.09,73.4805 26.8,0 42.84,-8.93 56.03,-21.922 l -19.89,-22.937 c -10.97,9.949 -22.13,16.039 -36.34,16.039 -23.96,0 -41.22,-19.891 -41.22,-44.2504 v -0.4101 c 0,-24.3594 16.87,-44.6602 41.22,-44.6602 16.23,0 26.18,6.5 37.34,16.6485 l 19.91,-20.0899 C 2925.32,9.75 2909.08,0 2881.67,0 2839.86,0 2808.8,32.2813 2808.8,73.0703"
         style="fill:#231f20;fill-opacity:1;fill-rule:nonzero;stroke:none"
         id="path88" /><path
         d="m 2997.44,144.531 h 107.19 v -27.812 h -76.12 V 87.8906 h 66.98 V 60.082 h -66.98 V 30.25 h 77.13 V 2.44141 h -108.2 V 144.531"
         style="fill:#231f20;fill-opacity:1;fill-rule:nonzero;stroke:none"
         id="path90" /></g></g></svg>
