<?xml version="1.0" encoding="UTF-8" standalone="no"?>
<!-- Created with Inkscape (http://www.inkscape.org/) -->

<svg
   version="1.1"
   id="svg2"
   xml:space="preserve"
   width="588.40002"
   height="333.85333"
   viewBox="0 0 588.40002 333.85333"
   sodipodi:docname="CCSACon logo-full version.eps"
   xmlns:inkscape="http://www.inkscape.org/namespaces/inkscape"
   xmlns:sodipodi="http://sodipodi.sourceforge.net/DTD/sodipodi-0.dtd"
   xmlns="http://www.w3.org/2000/svg"
   xmlns:svg="http://www.w3.org/2000/svg"><defs
     id="defs6" /><sodipodi:namedview
     id="namedview4"
     pagecolor="#ffffff"
     bordercolor="#666666"
     borderopacity="1.0"
     inkscape:pageshadow="2"
     inkscape:pageopacity="0.0"
     inkscape:pagecheckerboard="0" /><g
     id="g8"
     inkscape:groupmode="layer"
     inkscape:label="ink_ext_XXXXXX"
     transform="matrix(1.3333333,0,0,-1.3333333,0,333.85333)"><g
       id="g10"
       transform="scale(0.1)"><path
         d="m 1664.82,259.18 h 19.09 l 21.17,-34.059 21.18,34.059 h 19.09 v -80.539 h -17.6 v 52.578 l -22.67,-34.41 h -0.46 l -22.43,34.07 v -52.238 h -17.37 v 80.539"
         style="fill:#231f20;fill-opacity:1;fill-rule:nonzero;stroke:none"
         id="path12" /><path
         d="m 1810.89,212.352 -10.7,26.109 -10.7,-26.109 z m -18.64,47.398 h 16.34 l 34.51,-81.109 h -18.51 l -7.37,18.07 h -34.06 l -7.36,-18.07 h -18.06 l 34.51,81.109"
         style="fill:#231f20;fill-opacity:1;fill-rule:nonzero;stroke:none"
         id="path14" /><path
         d="m 1891.16,220.059 c 8.62,0 13.57,4.601 13.57,11.39 v 0.231 c 0,7.59 -5.29,11.5 -13.92,11.5 h -17.6 v -23.121 z m -35.67,39.121 h 36.82 c 10.23,0 18.17,-2.879 23.47,-8.18 4.48,-4.48 6.9,-10.809 6.9,-18.398 v -0.231 c 0,-13 -7.02,-21.172 -17.25,-24.973 l 19.66,-28.757 h -20.7 l -17.27,25.769 h -13.91 v -25.769 h -17.72 v 80.539"
         style="fill:#231f20;fill-opacity:1;fill-rule:nonzero;stroke:none"
         id="path16" /><path
         d="m 1935.06,218.68 v 0.218 c 0,22.903 17.27,41.653 42.01,41.653 15.18,0 24.26,-5.051 31.74,-12.422 l -11.27,-13 c -6.22,5.641 -12.54,9.09 -20.59,9.09 -13.58,0 -23.36,-11.27 -23.36,-25.078 v -0.243 c 0,-13.789 9.55,-25.296 23.36,-25.296 9.2,0 14.84,3.679 21.17,9.429 l 11.27,-11.39 c -8.28,-8.86 -17.49,-14.379 -33.02,-14.379 -23.7,0 -41.31,18.289 -41.31,41.418"
         style="fill:#231f20;fill-opacity:1;fill-rule:nonzero;stroke:none"
         id="path18" /><path
         d="m 2023.51,259.18 h 17.72 v -31.879 h 32.67 v 31.879 h 17.72 v -80.539 h -17.72 v 32.328 h -32.67 v -32.328 h -17.72 v 80.539"
         style="fill:#231f20;fill-opacity:1;fill-rule:nonzero;stroke:none"
         id="path20" /><path
         d="m 2156.23,241.801 -14.04,-3.449 -3.68,14.5 23.13,6.898 h 12.08 v -81.109 h -17.49 v 63.16"
         style="fill:#231f20;fill-opacity:1;fill-rule:nonzero;stroke:none"
         id="path22" /><path
         d="m 2204.75,241.801 -14.03,-3.449 -3.68,14.5 23.12,6.898 h 12.08 v -81.109 h -17.49 v 63.16"
         style="fill:#231f20;fill-opacity:1;fill-rule:nonzero;stroke:none"
         id="path24" /><path
         d="m 2238.55,222.699 h 35.44 V 205.91 h -35.44 v 16.789"
         style="fill:#231f20;fill-opacity:1;fill-rule:nonzero;stroke:none"
         id="path26" /><path
         d="m 2296.74,241.801 -14.03,-3.449 -3.68,14.5 23.12,6.898 h 12.08 v -81.109 h -17.49 v 63.16"
         style="fill:#231f20;fill-opacity:1;fill-rule:nonzero;stroke:none"
         id="path28" /><path
         d="m 2370.58,210.398 v 25.082 l -21.39,-25.082 z m 0,-14.386 h -39.34 l -2.89,12.539 44.18,51.199 h 14.97 v -49.352 h 10.81 v -14.386 h -10.81 v -17.371 h -16.92 v 17.371"
         style="fill:#231f20;fill-opacity:1;fill-rule:nonzero;stroke:none"
         id="path30" /><path
         d="m 2407.02,167.25 c 7.94,0.801 11.85,4.828 11.28,11.391 h -7.14 v 18.41 h 18.64 V 181.52 c 0,-15.192 -7.6,-21.29 -21.29,-21.52 l -1.49,7.25"
         style="fill:#231f20;fill-opacity:1;fill-rule:nonzero;stroke:none"
         id="path32" /><path
         d="m 2477.06,192.672 26.8,21.988 c 10.01,8.281 13.93,12.641 13.93,19.32 0,6.79 -4.49,10.469 -10.82,10.469 -6.21,0 -10.47,-3.461 -16.45,-10.82 l -12.43,10.012 c 7.94,10.82 15.66,16.687 30.03,16.687 16.68,0 27.73,-9.789 27.73,-24.848 v -0.242 c 0,-13.457 -6.9,-20.129 -21.17,-31.168 l -13.11,-10.129 h 35.09 v -15.3 h -59.6 v 14.031"
         style="fill:#231f20;fill-opacity:1;fill-rule:nonzero;stroke:none"
         id="path34" /><path
         d="m 2602.66,218.68 v 0.218 c 0,14.622 -7.14,25.672 -17.72,25.672 -10.59,0 -17.48,-10.711 -17.48,-25.429 v -0.243 c 0,-14.718 7.01,-25.648 17.71,-25.648 10.7,0 17.49,10.82 17.49,25.43 z m -53.39,0 v 0.218 c 0,23.364 14.5,41.653 35.9,41.653 21.28,0 35.67,-18.051 35.67,-41.41 v -0.243 c 0,-23.347 -14.39,-41.636 -35.9,-41.636 -21.52,0 -35.67,18.058 -35.67,41.418"
         style="fill:#231f20;fill-opacity:1;fill-rule:nonzero;stroke:none"
         id="path36" /><path
         d="m 2646.91,241.801 -14.03,-3.449 -3.69,14.5 23.13,6.898 h 12.08 v -81.109 h -17.49 v 63.16"
         style="fill:#231f20;fill-opacity:1;fill-rule:nonzero;stroke:none"
         id="path38" /><path
         d="m 2726.84,232.828 v 0.231 c 0,7.132 -5.29,12.312 -14.15,12.312 -8.74,0 -13.69,-5.062 -13.69,-12.199 v -0.223 c 0,-7.14 5.29,-12.078 14.04,-12.078 8.74,0 13.8,5.059 13.8,11.957 z m -0.34,-21.168 c -4.14,-3.449 -9.43,-5.519 -16.34,-5.519 -17.49,0 -28.76,9.66 -28.76,26 v 0.23 c 0,16.219 12.54,28.18 30.71,28.18 10.82,0 17.15,-2.641 23.25,-8.742 5.75,-5.75 9.55,-14.5 9.55,-30.368 v -0.23 c 0,-26.109 -12.32,-43.949 -35.21,-43.949 -11.74,0 -19.68,3.906 -26.46,9.539 l 9.32,13.469 c 5.86,-4.719 10.81,-6.899 17.6,-6.899 12.2,0 15.65,11.379 16.34,18.289"
         style="fill:#231f20;fill-opacity:1;fill-rule:nonzero;stroke:none"
         id="path40" /><path
         d="m 1661.53,30.3789 10.47,12.543 c 7.24,-5.9922 14.84,-9.793 24.05,-9.793 7.25,0 11.61,2.8828 11.61,7.6016 v 0.2304 c 0,4.4883 -2.75,6.7891 -16.22,10.2383 -16.22,4.1406 -26.69,8.6289 -26.69,24.6211 v 0.2305 c 0,14.6094 11.74,24.2772 28.19,24.2772 11.73,0 21.74,-3.6796 29.92,-10.2382 L 1713.65,76.75 c -7.13,4.9414 -14.15,7.9297 -20.94,7.9297 -6.79,0 -10.35,-3.1094 -10.35,-7.0195 v -0.2305 c 0,-5.2891 3.45,-7.0078 17.36,-10.5899 16.34,-4.25 25.55,-10.1093 25.55,-24.1601 v -0.2188 c 0,-16 -12.2,-24.9726 -29.57,-24.9726 -12.2,0 -24.5,4.2617 -34.17,12.8906"
         style="fill:#231f20;fill-opacity:1;fill-rule:nonzero;stroke:none"
         id="path42" /><path
         d="m 1785.18,52.3516 -10.7,26.1093 -10.71,-26.1093 z M 1766.54,99.75 h 16.34 l 34.51,-81.1094 h -18.52 l -7.36,18.0703 h -34.06 l -7.37,-18.0703 h -18.05 l 34.51,81.1094"
         style="fill:#231f20;fill-opacity:1;fill-rule:nonzero;stroke:none"
         id="path44" /><path
         d="m 1821.03,58.6797 v 0.2187 c 0,22.9024 17.27,41.6526 42,41.6526 15.19,0 24.27,-5.051 31.75,-12.4221 l -11.27,-13 c -6.22,5.6406 -12.55,9.0899 -20.59,9.0899 -13.58,0 -23.36,-11.2696 -23.36,-25.0782 v -0.2422 c 0,-13.789 9.55,-25.2968 23.36,-25.2968 9.19,0 14.84,3.6797 21.17,9.4297 l 11.27,-11.3907 c -8.28,-8.8593 -17.49,-14.3789 -33.02,-14.3789 -23.7,0 -41.31,18.2891 -41.31,41.418"
         style="fill:#231f20;fill-opacity:1;fill-rule:nonzero;stroke:none"
         id="path46" /><path
         d="m 1945.14,60.0586 c 8.63,0 13.58,4.6016 13.58,11.3906 v 0.2305 c 0,7.5898 -5.3,11.5 -13.93,11.5 h -17.6 V 60.0586 Z m -35.66,39.1211 h 36.81 c 10.24,0 18.18,-2.8789 23.47,-8.1797 4.48,-4.4805 6.91,-10.8086 6.91,-18.3984 v -0.2305 c 0,-13 -7.03,-21.1719 -17.26,-24.9727 l 19.67,-28.7578 h -20.71 l -17.26,25.7696 h -13.92 V 18.6406 h -17.71 v 80.5391"
         style="fill:#231f20;fill-opacity:1;fill-rule:nonzero;stroke:none"
         id="path48" /><path
         d="m 2038.87,52.3516 -10.7,26.1093 -10.7,-26.1093 z M 2020.23,99.75 h 16.34 l 34.51,-81.1094 h -18.52 l -7.36,18.0703 h -34.06 l -7.37,-18.0703 h -18.05 l 34.51,81.1094"
         style="fill:#231f20;fill-opacity:1;fill-rule:nonzero;stroke:none"
         id="path50" /><path
         d="m 2083.47,99.1797 h 19.09 l 21.18,-34.0586 21.17,34.0586 H 2164 V 18.6406 h -17.6 v 52.5782 l -22.66,-34.4102 h -0.46 l -22.43,34.0703 V 18.6406 h -17.38 v 80.5391"
         style="fill:#231f20;fill-opacity:1;fill-rule:nonzero;stroke:none"
         id="path52" /><path
         d="m 2183.3,99.1797 h 60.74 V 83.4219 h -43.15 V 67.0781 h 37.97 V 51.3203 h -37.97 V 34.3984 h 43.72 V 18.6406 h -61.31 v 80.5391"
         style="fill:#231f20;fill-opacity:1;fill-rule:nonzero;stroke:none"
         id="path54" /><path
         d="m 2260.35,99.1797 h 16.34 l 37.73,-49.5899 v 49.5899 h 17.49 V 18.6406 h -15.08 l -39,51.1992 V 18.6406 h -17.48 v 80.5391"
         style="fill:#231f20;fill-opacity:1;fill-rule:nonzero;stroke:none"
         id="path56" /><path
         d="m 2369.95,82.8398 h -24.51 v 16.3399 h 66.73 V 82.8398 h -24.51 V 18.6406 h -17.71 v 64.1992"
         style="fill:#231f20;fill-opacity:1;fill-rule:nonzero;stroke:none"
         id="path58" /><path
         d="m 2485.78,58.6797 v 0.2187 c 0,13.8125 -10.13,25.3204 -24.4,25.3204 -14.27,0 -24.16,-11.2696 -24.16,-25.0782 v -0.2422 c 0,-13.789 10.13,-25.2968 24.4,-25.2968 14.26,0 24.16,11.2695 24.16,25.0781 z m -67.08,0 v 0.2187 c 0,22.9024 18.06,41.6526 42.92,41.6526 24.85,0 42.68,-18.5197 42.68,-41.4104 v -0.2422 c 0,-22.8867 -18.06,-41.6367 -42.92,-41.6367 -24.84,0 -42.68,18.5196 -42.68,41.418"
         style="fill:#231f20;fill-opacity:1;fill-rule:nonzero;stroke:none"
         id="path60" /><path
         d="m 2508.74,7.25 c 7.94,0.80078 11.85,4.8281 11.28,11.3906 h -7.14 v 18.4102 h 18.64 V 21.5195 C 2531.52,6.32813 2523.92,0.230469 2510.23,0 l -1.49,7.25"
         style="fill:#231f20;fill-opacity:1;fill-rule:nonzero;stroke:none"
         id="path62" /><path
         d="m 2579.23,58.6797 v 0.2187 c 0,22.9024 17.27,41.6526 42.01,41.6526 15.18,0 24.26,-5.051 31.74,-12.4221 l -11.27,-13 c -6.22,5.6406 -12.54,9.0899 -20.59,9.0899 -13.58,0 -23.36,-11.2696 -23.36,-25.0782 v -0.2422 c 0,-13.789 9.55,-25.2968 23.36,-25.2968 9.2,0 14.84,3.6797 21.17,9.4297 l 11.27,-11.3907 c -8.28,-8.8593 -17.49,-14.3789 -33.02,-14.3789 -23.7,0 -41.31,18.2891 -41.31,41.418"
         style="fill:#231f20;fill-opacity:1;fill-rule:nonzero;stroke:none"
         id="path64" /><path
         d="m 2713.93,52.3516 -10.7,26.1093 -10.71,-26.1093 z M 2695.29,99.75 h 16.34 l 34.51,-81.1094 h -18.52 l -7.36,18.0703 h -34.06 l -7.37,-18.0703 h -18.05 l 34.51,81.1094"
         style="fill:#231f20;fill-opacity:1;fill-rule:nonzero;stroke:none"
         id="path66" /><path
         d="m 1934.01,2235.64 c 0,148.13 120.09,268.21 268.22,268.21 148.13,0 268.21,-120.08 268.21,-268.21 0,-148.13 -120.08,-268.22 -268.21,-268.22 -148.13,0 -268.22,120.09 -268.22,268.22"
         style="fill:#38bed8;fill-opacity:1;fill-rule:nonzero;stroke:none"
         id="path68" /><path
         d="m 2363.07,2154.36 c 1.25,-3.35 1.94,-8.07 4.86,-10.07 2.09,-1.45 4.66,-3.99 5.52,-6.47 0.88,-2.57 -0.31,-5.34 0.13,-7.94 0.14,-0.79 3.85,-0.53 4.44,-0.68 1.28,-0.34 2.46,-1.1 3.4,-2.07 1.97,-2.04 2.71,-4.96 0.32,-7.04 -2.27,-1.99 -5.66,-2.88 -7.48,-5.41 -0.84,-1.17 -1.47,-2.58 -2.27,-3.79 -1.2,-1.77 -0.86,-2.64 -0.9,-4.67 -0.02,-1.82 -0.82,-3.31 -0.22,-5.14 0.57,-1.74 1.34,-2.32 1.33,-4.45 0,-2.65 -0.02,-7.79 -2.21,-9.72 -1.93,-1.71 -4.86,-1.02 -4.92,-4.54 -0.02,-1.38 0.19,-2.61 0.95,-3.73 0.67,-1.01 2.05,-1.28 2.41,-2.53 0.75,-2.6 -3.25,-3.83 -0.64,-6.54 1.28,-1.34 3.08,-0.63 4.66,-0.84 2.35,-0.3 2.5,-1.17 3.39,-3.23 0.27,-0.64 0.96,-1.94 0.94,-2.61 -0.08,-1.9 -0.17,-0.49 -1.4,-1.75 -1.41,-1.46 -0.19,-2.98 -1.22,-4.62 -1.07,-1.71 -92,-14.77 -95.78,-14.71 -1.28,0.02 -2.01,3.79 -2.12,5.01 2.7,-5.25 3.35,1.9 0.06,3.22 -1.22,0.48 -1.25,-1.17 -2.58,0.37 -1.92,2.2 -0.25,4.52 -0.76,6.95 -0.3,1.43 -1.33,2.46 -1.51,4.06 -0.2,1.82 0.23,3.37 -0.61,4.97 -1.53,2.89 -3.88,3.86 -5.8,6.18 -0.98,1.2 -1.75,2.62 -2.67,3.84 -1.07,1.42 -2.23,2.13 -3.47,3.22 -0.59,0.53 -0.67,1.2 -1.43,1.68 -0.68,0.43 -1.77,0.28 -2.51,0.62 -1.37,0.61 -2.13,2.03 -3.12,3.12 -1.22,1.35 -2.54,1.49 -4,2.28 -2.28,1.23 -4.44,3.28 -5.91,5.39 -0.93,1.32 -0.64,1.75 -2.39,2.23 -1.23,0.32 -2.98,0.06 -4.15,-0.36 0.92,-4.05 -3.11,0.24 -3.61,0.44 -0.96,0.41 -1.56,-0.94 -2.22,0.72 -0.39,0.96 0.35,2.11 0.39,2.94 0.17,3.65 -2.38,7.1 -5.9,8.19 -3.63,1.12 -6.53,-2.57 -10.09,-1.56 -1.72,0.49 -2.43,1.2 -4.24,1.34 -2.35,0.18 -2.45,0.38 -3.96,1.84 -2.27,2.22 -5.37,1.47 -6.96,4.63 -0.66,1.33 -0.55,3.09 -1.62,4.18 -1.09,1.1 -2.61,1 -3.92,1.59 -1.17,0.52 -2.34,1.5 -3.38,2.24 -3.71,2.65 -9.75,0.47 -13.82,1.79 -0.78,0.26 -1.22,1.09 -1.94,1.41 -1.67,0.73 -4.26,0.66 -6.03,1.1 -2.26,0.56 -4.23,0.13 -6.51,-0.01 -2.13,-0.13 -3.93,-1.07 -5.98,-0.9 -1.04,1.09 -1.09,2.86 -2.09,3.94 -0.9,0.98 -2.47,1.01 -3.29,2.08 -1.28,1.68 0,2.46 0.22,4.19 0.24,1.95 -1.1,2.39 -1.28,3.63 -0.28,1.86 1.43,1.37 2.01,3 0.87,2.45 -2.65,2.33 -2.93,3.44 -0.4,1.6 0.83,1.03 1.28,2.04 0.38,0.89 0.47,2.2 0.65,3.17 0.39,2.12 0.85,4.64 -0.96,6.28 -1.65,1.5 -4.53,0.71 -6.08,2.46 -0.87,0.99 -3.81,7.09 -0.52,6.48 -0.22,-0.6 0.1,-0.93 0.08,-1.49 3.53,0.34 -1.48,4.66 -2.56,5.26 -1.02,0.56 -2.39,0.66 -3.24,1.44 -0.96,0.89 -0.87,2.22 -1.39,3.28 -1.46,3.04 -4.85,4.41 -7.11,6.72 -1.23,1.25 -1.48,2.37 -2.19,3.85 -0.66,1.39 -2.06,2.1 -2.78,3.49 -0.95,1.86 0.34,4.06 -1.33,5.73 -1.31,1.31 -3.09,1.08 -4.41,2.51 -1.87,2.02 -1.89,4.86 -3.86,6.47 -1.76,1.43 -4.47,1.42 -5.69,3.61 -0.43,0.79 0.1,2.39 -0.04,3.29 -0.17,1.17 -0.51,1.45 -0.83,2.46 -0.39,1.21 -1.39,4.31 0.35,4.94 -0.11,1 -2.32,4.91 0.89,3.93 0.93,-2.54 2.83,1.06 3.21,2.04 1,2.55 1.41,6.04 0.57,8.7 -1.17,3.66 -2.98,5.26 -6.42,3.79 -2.36,-1.01 -2.25,-0.89 -4.01,0.84 -1.18,1.16 -2.43,2.06 -3.62,3.11 -1.79,1.54 -4.72,4.54 -5.68,6.8 -0.71,1.68 -0.06,2.85 -0.06,4.62 0,1.7 -0.38,3.58 -0.52,5.23 -0.19,2.22 -0.71,2.06 -1.98,3.64 -1.38,1.69 -0.84,2.88 -0.23,4.79 0.33,1.03 0.52,1.41 0.28,2.61 -0.17,0.83 -1.1,1.61 -0.68,2.69 0.58,1.46 3.06,2.11 4.43,1.51 0.36,-1.25 2.88,-4.24 0.07,-3.78 -0.09,-2.96 1.5,-4.71 3.97,-6 1.47,-0.77 4.73,-3.5 6.22,-3.29 -2.19,2.78 -2.55,10.26 -6.62,10.02 0.22,0.84 0.83,1.45 0.82,2.38 -0.73,-0.13 -1.56,-0.28 -2.38,-0.15 -0.14,1.62 0.74,3.15 0.41,4.65 -0.42,1.91 -2.5,0.98 -2.68,2.45 -0.28,2.35 5.26,2.98 6.53,2.73 1.53,-0.29 2.62,-0.7 4.23,-0.11 1.64,0.61 1.55,1.01 3.45,0.89 1.38,-0.09 3.15,-0.18 4.46,-0.45 1.21,-0.24 3.1,-1.17 2.48,1.36 -1.36,0.07 -2.96,0.58 -4.04,0.65 -1.17,0.07 -2.22,-0.84 -3.47,-0.58 0.05,0.68 -0.13,1.47 -0.07,2.16 -3.01,0.44 -2.56,-4.22 -6.05,-2.26 -1.68,0.95 -2.58,3.69 -4.12,4.72 -0.18,-0.33 3.13,-4.99 0.21,-3.73 -0.62,1.29 -3.55,3.77 -5.12,2.6 -1.6,-1.21 0.01,-1.59 0.12,-2.47 0.18,-1.41 0.09,-1.72 -1.09,-2.86 1.09,-0.58 0.82,-1.86 -0.37,-2.25 -0.48,-1.73 1.25,-1.97 2.6,-2.22 0.42,-2.27 -2.66,-3.56 -4.43,-2.88 -1.37,0.53 -2.27,2.92 -3.77,3.38 -0.96,0.28 -1.36,-0.91 -2.47,0.19 -0.68,0.67 -0.04,1.75 -1.28,2.53 -1.41,0.88 -2.79,0.71 -4.07,1.78 -0.8,0.67 0.27,1.21 -1.27,1.42 -0.36,0.04 -0.48,-1.8 -1.47,-0.88 -0.76,0.72 0.37,1.33 0.48,1.67 0.51,1.57 0.7,1.94 0.28,3.55 -0.06,0.24 -1.28,3.12 -0.88,3.06 2.77,-0.38 2.28,-6.45 5.95,-6.17 0.34,1.88 -1.03,2.04 -1.7,3.31 -0.54,1.02 -0.55,2.11 -1.1,3.18 -0.67,1.31 -3.5,4.7 -4.96,3.26 -1.19,0.99 -0.62,2.34 -0.95,3.75 -0.32,1.42 -1,2.15 -1.9,3.22 -1.6,1.91 -3.37,3.1 -5.22,4.64 -1.67,1.4 -2.46,3.37 -3.75,5.13 -1.18,1.62 -2.3,2.13 -3.74,3.39 -2.22,1.95 -4.49,4.69 -5.07,7.68 -0.49,2.48 0.75,4.63 -0.09,7.13 -0.84,2.49 -1.75,5.06 -2.3,7.64 -0.67,3.16 1.06,5.95 1.18,9.14 0.06,1.89 0.54,3.65 0.67,5.35 0.13,1.72 -0.79,3.24 -1.12,4.9 -0.58,2.99 -2.69,5.57 -4,8.26 -1.21,2.5 -3,4.88 -4.47,7.12 -0.89,1.35 -1.87,1.6 -2.95,2.84 -1.27,1.43 -2.27,2.5 -3.59,3.77 -1.19,1.13 -1.48,2.22 -1.47,3.87 0,1.13 0.17,2.44 -0.01,3.56 -0.15,0.95 -0.85,1.74 -0.95,2.67 -0.18,1.72 0.57,1.19 1.13,2.46 0.4,0.91 0.26,1.98 0.71,2.9 0.29,0.58 3.69,7.47 4.05,7.53 0.35,0.07 0.7,0.07 1.05,0 -0.29,-0.45 -0.22,-1.2 -0.39,-1.71 1.51,-0.2 2.71,4.35 5.06,4.91 0.5,3.78 -3.89,-1.32 -4.16,-1.34 -0.24,1.62 1.08,3.03 1.81,4.36 1.41,2.61 1.26,4.58 0.88,7.25 -0.44,3.05 1.57,5.89 2.45,8.64 1.06,3.32 1.32,6.59 1.73,10.03 0.29,2.43 -0.32,1.88 -1.29,4.01 -0.75,1.64 0.22,3.75 -0.54,5.34 -0.71,1.51 -2.95,1.45 -3.3,2.89 -0.6,2.51 2.49,1.27 2.64,2.87 -4.54,1.51 0.51,3.71 -1.07,6.5 l 57.33,-3.4 74.81,-2.83 -1.19,-94.61 0.09,-33.6 188.32,-164.86"
         style="fill:#ffffff;fill-opacity:1;fill-rule:nonzero;stroke:none"
         id="path70" /><path
         d="m 1374.32,1744.17 v 0.42 c 0,40.39 30.44,73.48 74.08,73.48 26.81,0 42.84,-8.94 56.03,-21.93 l -19.89,-22.93 c -10.96,9.94 -22.12,16.03 -36.33,16.03 -23.96,0 -41.22,-19.89 -41.22,-44.25 v -0.4 c 0,-24.37 16.86,-44.67 41.22,-44.67 16.23,0 26.18,6.5 37.34,16.65 l 19.9,-20.1 c -14.62,-15.63 -30.85,-25.37 -58.26,-25.37 -41.82,0 -72.87,32.27 -72.87,73.07"
         style="fill:#231f20;fill-opacity:1;fill-rule:nonzero;stroke:none"
         id="path72" /><path
         d="m 1652.68,1733.01 -18.88,46.08 -18.88,-46.08 z m -32.88,83.64 h 28.82 l 60.9,-143.12 h -32.68 l -12.99,31.87 h -60.09 l -12.99,-31.87 h -31.87 l 60.9,143.12"
         style="fill:#231f20;fill-opacity:1;fill-rule:nonzero;stroke:none"
         id="path74" /><path
         d="m 1772.1,1815.63 h 31.27 v -113.67 h 70.84 v -28.43 H 1772.1 v 142.1"
         style="fill:#231f20;fill-opacity:1;fill-rule:nonzero;stroke:none"
         id="path76" /><path
         d="m 1939.83,1815.63 h 31.27 v -142.1 h -31.27 v 142.1"
         style="fill:#231f20;fill-opacity:1;fill-rule:nonzero;stroke:none"
         id="path78" /><path
         d="m 2047.26,1815.63 h 108.18 v -28.42 h -76.93 v -30.24 h 67.81 v -28.42 h -67.81 v -55.02 h -31.25 v 142.1"
         style="fill:#231f20;fill-opacity:1;fill-rule:nonzero;stroke:none"
         id="path80" /><path
         d="m 2316.9,1744.17 v 0.42 c 0,24.35 -17.87,44.65 -43.05,44.65 -25.17,0 -42.62,-19.89 -42.62,-44.25 v -0.4 c 0,-24.37 17.86,-44.67 43.03,-44.67 25.17,0 42.64,19.9 42.64,44.25 z m -118.37,0 v 0.42 c 0,40.39 31.89,73.48 75.73,73.48 43.86,0 75.33,-32.68 75.33,-73.08 v -0.4 c 0,-40.4 -31.89,-73.49 -75.74,-73.49 -43.84,0 -75.32,32.68 -75.32,73.07"
         style="fill:#231f20;fill-opacity:1;fill-rule:nonzero;stroke:none"
         id="path82" /><path
         d="m 2464.73,1746.61 c 15.23,0 23.96,8.12 23.96,20.1 v 0.41 c 0,13.4 -9.34,20.29 -24.57,20.29 h -31.06 v -40.8 z m -62.92,69.02 h 64.96 c 18.06,0 32.06,-5.07 41.41,-14.41 7.91,-7.92 12.17,-19.08 12.17,-32.48 v -0.41 c 0,-22.94 -12.39,-37.35 -30.44,-44.04 l 34.7,-50.76 h -36.53 l -30.45,45.48 h -24.57 v -45.48 h -31.25 v 142.1"
         style="fill:#231f20;fill-opacity:1;fill-rule:nonzero;stroke:none"
         id="path84" /><path
         d="m 2589.22,1815.63 h 28.82 l 66.59,-87.49 v 87.49 h 30.85 v -142.1 h -26.59 l -68.83,90.34 v -90.34 h -30.84 v 142.1"
         style="fill:#231f20;fill-opacity:1;fill-rule:nonzero;stroke:none"
         id="path86" /><path
         d="m 2791.68,1815.63 h 31.25 v -142.1 h -31.25 v 142.1"
         style="fill:#231f20;fill-opacity:1;fill-rule:nonzero;stroke:none"
         id="path88" /><path
         d="m 2980.69,1733.01 -18.88,46.08 -18.88,-46.08 z m -32.88,83.64 h 28.83 l 60.88,-143.12 h -32.66 l -12.99,31.87 h -60.11 l -12.99,-31.87 h -31.86 l 60.9,143.12"
         style="fill:#231f20;fill-opacity:1;fill-rule:nonzero;stroke:none"
         id="path90" /><path
         d="m 78.0625,1327.85 v 0.85 c 0,84.91 64.0005,154.46 155.7425,154.46 56.324,0 90.039,-18.77 117.773,-46.08 l -41.816,-48.22 c -23.043,20.91 -46.516,33.72 -76.383,33.72 -50.352,0 -86.617,-41.82 -86.617,-93.03 v -0.85 c 0,-51.21 35.41,-93.87 86.617,-93.87 34.141,0 55.043,13.65 78.516,34.99 l 41.816,-42.24 c -30.723,-32.87 -64.863,-53.34 -122.465,-53.34 -87.906,0 -153.1835,67.84 -153.1835,153.61"
         style="fill:#231f20;fill-opacity:1;fill-rule:nonzero;stroke:none"
         id="path92" /><path
         d="m 395.527,1478.04 h 65.703 v -118.19 h 121.188 v 118.19 h 65.711 v -298.69 h -65.711 v 119.91 H 461.23 v -119.91 h -65.703 v 298.69"
         style="fill:#231f20;fill-opacity:1;fill-rule:nonzero;stroke:none"
         id="path94" /><path
         d="m 880.684,1304.38 -39.688,96.86 -39.683,-96.86 z m -69.125,175.8 h 60.593 l 128.008,-300.83 h -68.699 l -27.309,67 h -126.3 l -27.309,-67 h -66.992 l 128.008,300.83"
         style="fill:#231f20;fill-opacity:1;fill-rule:nonzero;stroke:none"
         id="path96" /><path
         d="m 1167.86,1332.97 c 32.01,0 50.35,17.07 50.35,42.24 v 0.85 c 0,28.16 -19.62,42.68 -51.63,42.68 h -65.29 v -85.77 z m -132.27,145.07 h 136.54 c 37.97,0 67.42,-10.66 87.05,-30.29 16.64,-16.64 25.6,-40.11 25.6,-68.27 v -0.85 c 0,-48.22 -26.03,-78.52 -64.01,-92.6 l 72.97,-106.68 h -76.81 l -64,95.58 h -51.64 v -95.58 h -65.7 v 298.69"
         style="fill:#231f20;fill-opacity:1;fill-rule:nonzero;stroke:none"
         id="path98" /><path
         d="m 1402.97,1417.45 h -90.89 v 60.59 h 247.49 v -60.59 h -90.89 v -238.1 h -65.71 v 238.1"
         style="fill:#231f20;fill-opacity:1;fill-rule:nonzero;stroke:none"
         id="path100" /><path
         d="m 1599.25,1478.04 h 225.29 v -58.45 H 1664.53 V 1359 h 140.82 v -58.46 h -140.82 v -62.73 h 162.15 v -58.46 h -227.43 v 298.69"
         style="fill:#231f20;fill-opacity:1;fill-rule:nonzero;stroke:none"
         id="path102" /><path
         d="m 2006.74,1332.97 c 32.01,0 50.36,17.07 50.36,42.24 v 0.85 c 0,28.16 -19.63,42.68 -51.64,42.68 h -65.28 v -85.77 z m -132.27,145.07 h 136.55 c 37.96,0 67.41,-10.66 87.04,-30.29 16.65,-16.64 25.6,-40.11 25.6,-68.27 v -0.85 c 0,-48.22 -26.03,-78.52 -64,-92.6 l 72.96,-106.68 h -76.81 l -64,95.58 h -51.63 v -95.58 h -65.71 v 298.69"
         style="fill:#231f20;fill-opacity:1;fill-rule:nonzero;stroke:none"
         id="path104" /><path
         d="m 2269.17,1222.88 38.81,46.51 c 26.89,-22.19 55.05,-36.27 89.18,-36.27 26.89,0 43.11,10.67 43.11,28.16 v 0.86 c 0,16.63 -10.25,25.17 -60.17,37.97 -60.17,15.36 -99,32 -99,91.32 v 0.85 c 0,54.19 43.53,90.03 104.55,90.03 43.52,0 80.64,-13.66 110.94,-37.98 l -34.13,-49.49 c -26.46,18.35 -52.49,29.44 -77.67,29.44 -25.18,0 -38.41,-11.52 -38.41,-26.03 v -0.85 c 0,-19.62 12.81,-26.03 64.45,-39.26 60.58,-15.78 94.71,-37.55 94.71,-89.6 v -0.86 c 0,-59.31 -45.21,-92.59 -109.66,-92.59 -45.22,0 -90.88,15.79 -126.71,47.79"
         style="fill:#231f20;fill-opacity:1;fill-rule:nonzero;stroke:none"
         id="path106" /><path
         d="m 2538.82,1327.85 v 0.85 c 0,84.91 64.01,154.46 155.76,154.46 56.31,0 90.02,-18.77 117.76,-46.08 l -41.83,-48.22 c -23.04,20.91 -46.49,33.72 -76.36,33.72 -50.36,0 -86.64,-41.82 -86.64,-93.03 v -0.85 c 0,-51.21 35.43,-93.87 86.64,-93.87 34.13,0 55.04,13.65 78.5,34.99 l 41.82,-42.24 c -30.72,-32.87 -64.86,-53.34 -122.47,-53.34 -87.89,0 -153.18,67.84 -153.18,153.61"
         style="fill:#231f20;fill-opacity:1;fill-rule:nonzero;stroke:none"
         id="path108" /><path
         d="M 2856.27,1478.04 H 2922 v -118.19 h 121.18 v 118.19 h 65.72 v -298.69 h -65.72 v 119.91 H 2922 v -119.91 h -65.73 v 298.69"
         style="fill:#231f20;fill-opacity:1;fill-rule:nonzero;stroke:none"
         id="path110" /><path
         d="m 3405.45,1327.85 v 0.85 c 0,51.2 -37.53,93.88 -90.44,93.88 -52.92,0 -89.62,-41.82 -89.62,-93.03 v -0.85 c 0,-51.21 37.55,-93.87 90.46,-93.87 52.91,0 89.6,41.81 89.6,93.02 z m -248.76,0 v 0.85 c 0,84.91 66.99,154.46 159.16,154.46 92.16,0 158.3,-68.69 158.3,-153.61 v -0.85 c 0,-84.91 -66.99,-154.46 -159.14,-154.46 -92.18,0 -158.32,68.7 -158.32,153.61"
         style="fill:#231f20;fill-opacity:1;fill-rule:nonzero;stroke:none"
         id="path112" /><path
         d="m 3757.48,1327.85 v 0.85 c 0,51.2 -37.55,93.88 -90.46,93.88 -52.91,0 -89.62,-41.82 -89.62,-93.03 v -0.85 c 0,-51.21 37.56,-93.87 90.47,-93.87 52.91,0 89.61,41.81 89.61,93.02 z m -248.77,0 v 0.85 c 0,84.91 66.98,154.46 159.16,154.46 92.16,0 158.3,-68.69 158.3,-153.61 v -0.85 c 0,-84.91 -66.99,-154.46 -159.15,-154.46 -92.18,0 -158.31,68.7 -158.31,153.61"
         style="fill:#231f20;fill-opacity:1;fill-rule:nonzero;stroke:none"
         id="path114" /><path
         d="m 3873.96,1478.04 h 65.72 v -238.95 h 148.91 v -59.74 h -214.63 v 298.69"
         style="fill:#231f20;fill-opacity:1;fill-rule:nonzero;stroke:none"
         id="path116" /><path
         d="m 4106.93,1222.88 38.82,46.51 c 26.88,-22.19 55.05,-36.27 89.18,-36.27 26.88,0 43.1,10.67 43.1,28.16 v 0.86 c 0,16.63 -10.25,25.17 -60.16,37.97 -60.18,15.36 -99,32 -99,91.32 v 0.85 c 0,54.19 43.53,90.03 104.54,90.03 43.52,0 80.65,-13.66 110.94,-37.98 l -34.13,-49.49 c -26.46,18.35 -52.48,29.44 -77.66,29.44 -25.17,0 -38.41,-11.52 -38.41,-26.03 v -0.85 c 0,-19.62 12.81,-26.03 64.44,-39.26 60.59,-15.78 94.72,-37.55 94.72,-89.6 v -0.86 c 0,-59.31 -45.22,-92.59 -109.66,-92.59 -45.22,0 -90.88,15.79 -126.72,47.79"
         style="fill:#231f20;fill-opacity:1;fill-rule:nonzero;stroke:none"
         id="path118" /><path
         d="M 1233.64,1762.06 0,1773.8 l 1233.64,11.75 z"
         style="fill:#231f20;fill-opacity:1;fill-rule:nonzero;stroke:none"
         id="path120" /><path
         d="M 3179.35,1785.55 4412.99,1773.8 3179.35,1762.06 Z"
         style="fill:#231f20;fill-opacity:1;fill-rule:nonzero;stroke:none"
         id="path122" /><path
         d="M 1233.64,869.16 0,880.891 1233.64,892.629 Z"
         style="fill:#231f20;fill-opacity:1;fill-rule:nonzero;stroke:none"
         id="path124" /><path
         d="M 3179.35,892.629 4412.99,880.891 3179.35,869.16 Z"
         style="fill:#231f20;fill-opacity:1;fill-rule:nonzero;stroke:none"
         id="path126" /><path
         d="m 1308.79,884.781 v 0.41 c 0,40.399 30.44,73.477 74.09,73.477 26.8,0 42.83,-8.93 56.02,-21.918 l -19.89,-22.941 c -10.96,9.953 -22.12,16.043 -36.33,16.043 -23.96,0 -41.21,-19.891 -41.21,-44.25 v -0.411 c 0,-24.363 16.85,-44.66 41.21,-44.66 16.24,0 26.18,6.5 37.34,16.649 l 19.9,-20.09 c -14.62,-15.629 -30.85,-25.379 -58.26,-25.379 -41.82,0 -72.87,32.277 -72.87,73.07"
         style="fill:#231f20;fill-opacity:1;fill-rule:nonzero;stroke:none"
         id="path128" /><path
         d="m 1613.54,884.781 v 0.41 c 0,24.36 -17.86,44.661 -43.03,44.661 -25.17,0 -42.63,-19.891 -42.63,-44.25 v -0.411 c 0,-24.363 17.86,-44.66 43.04,-44.66 25.16,0 42.62,19.91 42.62,44.25 z m -118.34,0 v 0.41 c 0,40.399 31.87,73.477 75.72,73.477 43.84,0 75.31,-32.668 75.31,-73.066 v -0.411 c 0,-40.402 -31.87,-73.48 -75.72,-73.48 -43.85,0 -75.31,32.687 -75.31,73.07"
         style="fill:#231f20;fill-opacity:1;fill-rule:nonzero;stroke:none"
         id="path130" /><path
         d="m 1714.7,956.238 h 28.83 l 66.59,-87.488 v 87.488 h 30.85 v -142.09 h -26.59 l -68.82,90.332 v -90.332 h -30.86 v 142.09"
         style="fill:#231f20;fill-opacity:1;fill-rule:nonzero;stroke:none"
         id="path132" /><path
         d="m 1915.74,956.238 h 108.2 V 927.82 H 1947 v -30.242 h 67.8 V 869.16 H 1947 v -55.012 h -31.26 v 142.09"
         style="fill:#231f20;fill-opacity:1;fill-rule:nonzero;stroke:none"
         id="path134" /><path
         d="m 2089.56,956.238 h 107.18 V 928.43 h -76.12 v -28.828 h 66.99 v -27.813 h -66.99 v -29.828 h 77.14 v -27.813 h -108.2 v 142.09"
         style="fill:#231f20;fill-opacity:1;fill-rule:nonzero;stroke:none"
         id="path136" /><path
         d="m 2329.16,887.219 c 15.21,0 23.93,8.121 23.93,20.101 v 0.41 c 0,13.399 -9.33,20.29 -24.55,20.29 h -31.06 v -40.801 z m -62.94,69.019 h 64.96 c 18.06,0 32.08,-5.078 41.41,-14.41 7.92,-7.918 12.17,-19.078 12.17,-32.476 v -0.411 c 0,-22.941 -12.38,-37.351 -30.45,-44.043 l 34.72,-50.75 h -36.54 l -30.45,45.461 h -24.56 v -45.461 h -31.26 v 142.09"
         style="fill:#231f20;fill-opacity:1;fill-rule:nonzero;stroke:none"
         id="path138" /><path
         d="m 2453.64,956.238 h 107.19 V 928.43 h -76.13 v -28.828 h 66.99 v -27.813 h -66.99 v -29.828 h 77.13 v -27.813 h -108.19 v 142.09"
         style="fill:#231f20;fill-opacity:1;fill-rule:nonzero;stroke:none"
         id="path140" /><path
         d="m 2630.31,956.238 h 28.82 l 66.59,-87.488 v 87.488 h 30.86 v -142.09 h -26.59 l -68.82,90.332 v -90.332 h -30.86 v 142.09"
         style="fill:#231f20;fill-opacity:1;fill-rule:nonzero;stroke:none"
         id="path142" /><path
         d="m 2808.8,884.781 v 0.41 c 0,40.399 30.45,73.477 74.09,73.477 26.8,0 42.84,-8.93 56.03,-21.918 l -19.89,-22.941 c -10.97,9.953 -22.13,16.043 -36.34,16.043 -23.96,0 -41.22,-19.891 -41.22,-44.25 v -0.411 c 0,-24.363 16.87,-44.66 41.22,-44.66 16.23,0 26.18,6.5 37.34,16.649 l 19.91,-20.09 c -14.62,-15.629 -30.86,-25.379 -58.27,-25.379 -41.81,0 -72.87,32.277 -72.87,73.07"
         style="fill:#231f20;fill-opacity:1;fill-rule:nonzero;stroke:none"
         id="path144" /><path
         d="m 2997.44,956.238 h 107.19 V 928.43 h -76.12 v -28.828 h 66.98 v -27.813 h -66.98 v -29.828 h 77.13 v -27.813 h -108.2 v 142.09"
         style="fill:#231f20;fill-opacity:1;fill-rule:nonzero;stroke:none"
         id="path146" /><path
         d="m 2219.59,407.77 c -173.99,1.101 -333.89,-21.372 -492.3,-56.36 -118.06,-26.07 -234.35,-58.699 -349.44,-95.601 -13.07,-4.188 -15.73,-0.278 -18.2,11.14 -17.55,81.153 -27.7,163.582 -43.07,245.102 -3.2,16.949 -6.26,33.961 -10.55,50.648 -2.79,10.801 -1.17,16.102 10.63,19.742 152.64,47.149 306.3,90.118 463.5,119.778 77.4,14.601 155.17,26.511 233.56,33.543 95.33,8.547 190.82,11.347 286.63,7.09 167.54,-7.454 331.9,-34.934 494.61,-74.071 103.56,-24.922 205.76,-54.75 307.55,-86.031 12.08,-3.711 13.9,-8.84 11.22,-20.531 -16.67,-72.5 -26,-146.34 -39.07,-219.508 -4.72,-26.422 -10.47,-52.672 -15.21,-79.102 -1.78,-9.879 -5.47,-11.668 -15.18,-8.519 -90.79,29.39 -182.53,55.48 -275.17,78.41 -109.5,27.121 -220.03,48.93 -332.14,61.711 -75.94,8.66 -152.16,14.148 -217.37,12.559"
         style="fill:#38bed8;fill-opacity:1;fill-rule:nonzero;stroke:none"
         id="path148" /><path
         d="m 1049.63,499.27 c 78.9,0 157.25,-0.079 235.6,0.152 7.89,0.027 10.33,-2.551 11.62,-10.391 10.04,-61.48 20.37,-122.922 31.35,-184.25 4.31,-24.011 10.9,-47.609 15.64,-71.562 1.89,-9.528 5.08,-11.09 14.36,-8.098 40.13,13.008 80.61,24.93 120.8,37.738 9.98,3.18 15.3,3.309 13.78,-9.609 -1.72,-14.602 6.26,-34.281 -3.38,-42.641 -8.36,-7.238 -27.44,-2.429 -41.78,-2.437 -127.4,-0.082 -254.8,-0.051 -382.2,-0.051 -5.13,0 -10.25,0 -18.72,0 15.05,17.938 28.07,33.629 41.26,49.141 23.97,28.179 47.67,56.597 72.29,84.168 7.7,8.621 6.03,14.031 -0.52,21.769 -35.35,41.84 -70.31,83.992 -105.35,126.082 -2.04,2.449 -5.38,4.231 -4.75,9.989"
         style="fill:#38bed8;fill-opacity:1;fill-rule:nonzero;stroke:none"
         id="path150" /><path
         d="m 3366.76,208.121 c -116.46,0 -229.95,0 -343.44,0 -30.31,0 -60.6,0.231 -90.9,-0.141 -7.89,-0.101 -11.31,1.891 -10.84,10.399 0.63,11.5 0.74,23.109 -0.01,34.609 -0.77,11.711 1.93,15.172 14.34,11.172 40.12,-12.969 80.86,-24.07 120.8,-37.519 13.64,-4.602 17.84,-1.7 20.92,11.461 16.02,68.238 26.38,137.457 37.66,206.539 2.17,13.238 5.12,26.398 6.53,39.718 1.24,11.7 5.82,15.403 18.19,15.282 70.69,-0.743 141.38,-0.36 212.09,-0.36 4.18,0 8.36,0 16.07,0 -18.1,-21.84 -34.09,-41.242 -50.2,-60.562 -21.23,-25.469 -42.17,-51.188 -63.99,-76.149 -7.47,-8.55 -6.01,-13.961 0.79,-21.789 35.28,-40.64 70.06,-81.711 104.97,-122.679 2.07,-2.43 3.71,-5.243 7.02,-9.981"
         style="fill:#38bed8;fill-opacity:1;fill-rule:nonzero;stroke:none"
         id="path152" /><path
         d="m 1553.96,444.59 34.24,47.969 c 13.62,19.171 18.04,28.839 15.51,40.863 -2.75,13.137 -12.99,18.957 -24.26,16.598 -11.27,-2.372 -17.61,-10.649 -24.15,-25.95 l -18.26,9.91 c 8.08,20.2 17.58,32.731 39.6,37.348 24.13,5.051 44.04,-7.5 49.03,-31.316 l 0.09,-0.391 c 4.39,-20.961 -3.42,-34.543 -21.22,-58.371 l -20.56,-28.199 58.64,12.301 4.32,-20.602 -89.11,-18.648 -3.87,18.488"
         style="fill:#ffffff;fill-opacity:1;fill-rule:nonzero;stroke:none"
         id="path154" /><path
         d="m 1732.68,505.352 -0.07,0.386 c -2.59,13.391 -14.41,21.442 -29.79,18.481 -15.38,-2.969 -23.04,-15.551 -20.57,-28.367 l 0.07,-0.383 c 2.63,-13.598 14.87,-21.957 30.25,-18.989 15.39,2.961 22.77,15.098 20.11,28.872 z m -52.84,-41.723 c -11.33,8.351 -19.67,21.211 -24.87,48.191 l -0.08,0.391 c -7.89,40.937 3.98,76.367 38.99,83.098 16.09,3.101 28.12,-0.329 40.72,-7.637 l -8.16,-20.41 c -10.07,5.59 -18.17,8.609 -29.13,6.488 -21.58,-4.141 -24.67,-29.941 -21.49,-48.391 5.67,9.629 13.83,16.762 27.09,19.321 23.88,4.582 46.1,-7.02 51.26,-33.801 l 0.08,-0.379 c 5.12,-26.602 -11.21,-49.379 -37.2,-54.398 -15.2,-2.922 -27.16,0.136 -37.21,7.527"
         style="fill:#ffffff;fill-opacity:1;fill-rule:nonzero;stroke:none"
         id="path156" /><path
         d="m 1799.06,589.75 -39.35,-6.801 -3.77,21.891 100.7,17.43 3.77,-21.879 -39.36,-6.832 19.39,-112.539 -21.99,-3.809 -19.39,112.539"
         style="fill:#ffffff;fill-opacity:1;fill-rule:nonzero;stroke:none"
         id="path158" /><path
         d="m 1881.93,626.262 21.93,3.129 8.03,-56.082 59.54,8.492 -8.04,56.097 21.93,3.141 19.32,-134.949 -21.92,-3.121 -8.14,56.859 -59.54,-8.5 8.15,-56.867 -21.93,-3.141 -19.33,134.942"
         style="fill:#ffffff;fill-opacity:1;fill-rule:nonzero;stroke:none"
         id="path160" /><path
         d="m 2160.73,574.109 -24.73,53.243 -18.57,-55.641 z m -36.19,81.27 20.48,1.133 62.9,-133.981 -23.36,-1.312 -14.57,32.152 -59.47,-3.301 -11.13,-33.59 -22.64,-1.25 47.79,140.149"
         style="fill:#ffffff;fill-opacity:1;fill-rule:nonzero;stroke:none"
         id="path162" /><path
         d="m 2234.61,657.18 20.49,-1.352 61.17,-98.578 6.22,94.109 21.73,-1.441 -8.99,-136.098 -18.51,1.231 -62.95,101.41 -6.4,-96.82 -21.74,1.437 8.98,136.102"
         style="fill:#ffffff;fill-opacity:1;fill-rule:nonzero;stroke:none"
         id="path164" /><path
         d="m 2384.35,645.539 20.38,-2.508 55.5,-101.832 11.51,93.531 21.63,-2.679 -16.66,-135.27 -18.41,2.278 -57.13,104.793 -11.85,-96.243 -21.63,2.672 16.66,135.258"
         style="fill:#ffffff;fill-opacity:1;fill-rule:nonzero;stroke:none"
         id="path166" /><path
         d="m 2517.43,549.379 12.08,77.59 21.86,-3.43 -11.94,-76.629 c -3.9,-25.031 5.96,-40.172 25.5,-43.242 19.39,-3.027 33.25,7.621 37.12,32.461 l 12.08,77.582 21.87,-3.422 -11.91,-76.43 c -6.26,-40.238 -30.39,-57.179 -62.92,-52.078 -32.37,5.059 -49.84,28.52 -43.74,67.598"
         style="fill:#ffffff;fill-opacity:1;fill-rule:nonzero;stroke:none"
         id="path168" /><path
         d="m 2723.65,511.391 -11.87,57.539 -30.87,-49.91 z m -16.57,87.468 20.21,-3.597 30.45,-144.973 -23.05,4.109 -6.8,34.661 -58.69,10.492 -18.55,-30.153 -22.34,4 78.77,125.461"
         style="fill:#ffffff;fill-opacity:1;fill-rule:nonzero;stroke:none"
         id="path170" /><path
         d="m 2804.4,580.012 21.72,-4.25 -21.97,-112.364 64.99,-12.699 -4.19,-21.41 -86.71,16.949 26.16,133.774"
         style="fill:#ffffff;fill-opacity:1;fill-rule:nonzero;stroke:none"
         id="path172" /></g></g></svg>
