<?xml version="1.0" encoding="UTF-8" standalone="no"?>
<svg
   xmlns:dc="http://purl.org/dc/elements/1.1/"
   xmlns:cc="http://creativecommons.org/ns#"
   xmlns:rdf="http://www.w3.org/1999/02/22-rdf-syntax-ns#"
   xmlns:svg="http://www.w3.org/2000/svg"
   xmlns="http://www.w3.org/2000/svg"
   viewBox="0 0 541.33331 162.69333"
   height="162.69333"
   width="541.33331"
   xml:space="preserve"
   id="svg2"
   version="1.1"><metadata
     id="metadata8"><rdf:RDF><cc:Work
         rdf:about=""><dc:format>image/svg+xml</dc:format><dc:type
           rdf:resource="http://purl.org/dc/dcmitype/StillImage" /></cc:Work></rdf:RDF></metadata><defs
     id="defs6" /><g
     transform="matrix(1.3333333,0,0,-1.3333333,0,162.69333)"
     id="g10"><g
       transform="scale(0.1)"
       id="g12"><path
         id="path14"
         style="fill:#100f0d;fill-opacity:1;fill-rule:nonzero;stroke:none"
         d="m 580,475.16 c 22.09,0 40,17.91 40,40 0,22.094 -17.91,40 -40,40 -22.094,0 -40,-17.906 -40,-40 0,-22.09 17.906,-40 40,-40" /><path
         id="path16"
         style="fill:#100f0d;fill-opacity:1;fill-rule:nonzero;stroke:none"
         d="m 580,585.16 c 16.57,0 30,13.43 30,30 0,16.57 -13.43,30 -30,30 -16.57,0 -30,-13.43 -30,-30 0,-16.57 13.43,-30 30,-30" /><path
         id="path18"
         style="fill:#100f0d;fill-opacity:1;fill-rule:nonzero;stroke:none"
         d="m 580,695.16 c 11.047,0 20,8.953 20,20 0,11.047 -8.953,20 -20,20 -11.047,0 -20,-8.953 -20,-20 0,-11.047 8.953,-20 20,-20" /><path
         id="path20"
         style="fill:#100f0d;fill-opacity:1;fill-rule:nonzero;stroke:none"
         d="m 580,805.16 c 5.523,0 10,4.477 10,10 0,5.524 -4.477,10 -10,10 -5.523,0 -10,-4.476 -10,-10 0,-5.523 4.477,-10 10,-10" /><path
         id="path22"
         style="fill:#100f0d;fill-opacity:1;fill-rule:nonzero;stroke:none"
         d="m 580,910.16 c 2.762,0 5,2.238 5,5 0,2.762 -2.238,5 -5,5 -2.762,0 -5,-2.238 -5,-5 0,-2.762 2.238,-5 5,-5" /><path
         id="path24"
         style="fill:#100f0d;fill-opacity:1;fill-rule:nonzero;stroke:none"
         d="m 680,575.16 c 22.09,0 40,17.91 40,40 0,22.094 -17.91,40 -40,40 -22.094,0 -40,-17.906 -40,-40 0,-22.09 17.906,-40 40,-40" /><path
         id="path26"
         style="fill:#100f0d;fill-opacity:1;fill-rule:nonzero;stroke:none"
         d="m 680,685.16 c 16.57,0 30,13.43 30,30 0,16.57 -13.43,30 -30,30 -16.57,0 -30,-13.43 -30,-30 0,-16.57 13.43,-30 30,-30" /><path
         id="path28"
         style="fill:#100f0d;fill-opacity:1;fill-rule:nonzero;stroke:none"
         d="m 680,795.16 c 11.047,0 20,8.953 20,20 0,11.047 -8.953,20 -20,20 -11.047,0 -20,-8.953 -20,-20 0,-11.047 8.953,-20 20,-20" /><path
         id="path30"
         style="fill:#100f0d;fill-opacity:1;fill-rule:nonzero;stroke:none"
         d="m 680,905.16 c 5.523,0 10,4.477 10,10 0,5.524 -4.477,10 -10,10 -5.523,0 -10,-4.476 -10,-10 0,-5.523 4.477,-10 10,-10" /><path
         id="path32"
         style="fill:#100f0d;fill-opacity:1;fill-rule:nonzero;stroke:none"
         d="m 680,1010.16 c 2.762,0 5,2.24 5,5 0,2.76 -2.238,5 -5,5 -2.762,0 -5,-2.24 -5,-5 0,-2.76 2.238,-5 5,-5" /><path
         id="path34"
         style="fill:#100f0d;fill-opacity:1;fill-rule:nonzero;stroke:none"
         d="m 780,675.16 c 22.09,0 40,17.91 40,40 0,22.094 -17.91,40 -40,40 -22.094,0 -40,-17.906 -40,-40 0,-22.09 17.906,-40 40,-40" /><path
         id="path36"
         style="fill:#100f0d;fill-opacity:1;fill-rule:nonzero;stroke:none"
         d="m 780,785.16 c 16.57,0 30,13.43 30,30 0,16.57 -13.43,30 -30,30 -16.57,0 -30,-13.43 -30,-30 0,-16.57 13.43,-30 30,-30" /><path
         id="path38"
         style="fill:#100f0d;fill-opacity:1;fill-rule:nonzero;stroke:none"
         d="m 780,895.16 c 11.047,0 20,8.953 20,20 0,11.047 -8.953,20 -20,20 -11.047,0 -20,-8.953 -20,-20 0,-11.047 8.953,-20 20,-20" /><path
         id="path40"
         style="fill:#100f0d;fill-opacity:1;fill-rule:nonzero;stroke:none"
         d="m 780,1005.16 c 5.523,0 10,4.48 10,10 0,5.52 -4.477,10 -10,10 -5.523,0 -10,-4.48 -10,-10 0,-5.52 4.477,-10 10,-10" /><path
         id="path42"
         style="fill:#100f0d;fill-opacity:1;fill-rule:nonzero;stroke:none"
         d="m 780,1110.16 c 2.762,0 5,2.24 5,5 0,2.76 -2.238,5 -5,5 -2.762,0 -5,-2.24 -5,-5 0,-2.76 2.238,-5 5,-5" /><path
         id="path44"
         style="fill:#100f0d;fill-opacity:1;fill-rule:nonzero;stroke:none"
         d="m 880,775.16 c 22.09,0 40,17.91 40,40 0,22.094 -17.91,40 -40,40 -22.094,0 -40,-17.906 -40,-40 0,-22.09 17.906,-40 40,-40" /><path
         id="path46"
         style="fill:#100f0d;fill-opacity:1;fill-rule:nonzero;stroke:none"
         d="m 880,885.16 c 16.57,0 30,13.43 30,30 0,16.57 -13.43,30 -30,30 -16.57,0 -30,-13.43 -30,-30 0,-16.57 13.43,-30 30,-30" /><path
         id="path48"
         style="fill:#100f0d;fill-opacity:1;fill-rule:nonzero;stroke:none"
         d="m 880,995.16 c 11.047,0 20,8.95 20,20 0,11.05 -8.953,20 -20,20 -11.047,0 -20,-8.95 -20,-20 0,-11.05 8.953,-20 20,-20" /><path
         id="path50"
         style="fill:#100f0d;fill-opacity:1;fill-rule:nonzero;stroke:none"
         d="m 880,1105.16 c 5.523,0 10,4.48 10,10 0,5.52 -4.477,10 -10,10 -5.523,0 -10,-4.48 -10,-10 0,-5.52 4.477,-10 10,-10" /><path
         id="path52"
         style="fill:#100f0d;fill-opacity:1;fill-rule:nonzero;stroke:none"
         d="m 880,1210.16 c 2.762,0 5,2.24 5,5 0,2.76 -2.238,5 -5,5 -2.762,0 -5,-2.24 -5,-5 0,-2.76 2.238,-5 5,-5" /><path
         id="path54"
         style="fill:#100f0d;fill-opacity:1;fill-rule:nonzero;stroke:none"
         d="m 980,485.16 c 16.57,0 30,13.43 30,30 0,16.57 -13.43,30 -30,30 -16.57,0 -30,-13.43 -30,-30 0,-16.57 13.43,-30 30,-30" /><path
         id="path56"
         style="fill:#100f0d;fill-opacity:1;fill-rule:nonzero;stroke:none"
         d="m 980,595.16 c 11.047,0 20,8.953 20,20 0,11.047 -8.953,20 -20,20 -11.047,0 -20,-8.953 -20,-20 0,-11.047 8.953,-20 20,-20" /><path
         id="path58"
         style="fill:#100f0d;fill-opacity:1;fill-rule:nonzero;stroke:none"
         d="m 980,705.16 c 5.523,0 10,4.477 10,10 0,5.524 -4.477,10 -10,10 -5.523,0 -10,-4.476 -10,-10 0,-5.523 4.477,-10 10,-10" /><path
         id="path60"
         style="fill:#100f0d;fill-opacity:1;fill-rule:nonzero;stroke:none"
         d="m 980,810.16 c 2.762,0 5,2.238 5,5 0,2.762 -2.238,5 -5,5 -2.762,0 -5,-2.238 -5,-5 0,-2.762 2.238,-5 5,-5" /><path
         id="path62"
         style="fill:#100f0d;fill-opacity:1;fill-rule:nonzero;stroke:none"
         d="m 80,675.16 c 22.09,0 40,17.91 40,40 0,22.094 -17.91,40 -40,40 -22.0898,0 -40,-17.906 -40,-40 0,-22.09 17.9102,-40 40,-40" /><path
         id="path64"
         style="fill:#100f0d;fill-opacity:1;fill-rule:nonzero;stroke:none"
         d="m 80,785.16 c 16.5703,0 30,13.43 30,30 0,16.57 -13.4297,30 -30,30 -16.5703,0 -30,-13.43 -30,-30 0,-16.57 13.4297,-30 30,-30" /><path
         id="path66"
         style="fill:#100f0d;fill-opacity:1;fill-rule:nonzero;stroke:none"
         d="m 80,895.16 c 11.0469,0 20,8.953 20,20 0,11.047 -8.9531,20 -20,20 -11.0469,0 -20,-8.953 -20,-20 0,-11.047 8.9531,-20 20,-20" /><path
         id="path68"
         style="fill:#100f0d;fill-opacity:1;fill-rule:nonzero;stroke:none"
         d="m 80,1005.16 c 5.5234,0 10,4.48 10,10 0,5.52 -4.4766,10 -10,10 -5.5234,0 -10,-4.48 -10,-10 0,-5.52 4.4766,-10 10,-10" /><path
         id="path70"
         style="fill:#100f0d;fill-opacity:1;fill-rule:nonzero;stroke:none"
         d="m 80,1110.16 c 2.7617,0 5,2.24 5,5 0,2.76 -2.2383,5 -5,5 -2.7617,0 -5,-2.24 -5,-5 0,-2.76 2.2383,-5 5,-5" /><path
         id="path72"
         style="fill:#100f0d;fill-opacity:1;fill-rule:nonzero;stroke:none"
         d="m 180,655.16 c -22.094,0 -40,-17.906 -40,-40 0,-22.09 17.906,-40 40,-40 22.09,0 40,17.91 40,40 0,22.094 -17.91,40 -40,40" /><path
         id="path74"
         style="fill:#100f0d;fill-opacity:1;fill-rule:nonzero;stroke:none"
         d="m 180,685.16 c 16.57,0 30,13.43 30,30 0,16.57 -13.43,30 -30,30 -16.57,0 -30,-13.43 -30,-30 0,-16.57 13.43,-30 30,-30" /><path
         id="path76"
         style="fill:#100f0d;fill-opacity:1;fill-rule:nonzero;stroke:none"
         d="m 180,795.16 c 11.047,0 20,8.953 20,20 0,11.047 -8.953,20 -20,20 -11.047,0 -20,-8.953 -20,-20 0,-11.047 8.953,-20 20,-20" /><path
         id="path78"
         style="fill:#100f0d;fill-opacity:1;fill-rule:nonzero;stroke:none"
         d="m 180,905.16 c 5.523,0 10,4.477 10,10 0,5.524 -4.477,10 -10,10 -5.523,0 -10,-4.476 -10,-10 0,-5.523 4.477,-10 10,-10" /><path
         id="path80"
         style="fill:#100f0d;fill-opacity:1;fill-rule:nonzero;stroke:none"
         d="m 180,1010.16 c 2.762,0 5,2.24 5,5 0,2.76 -2.238,5 -5,5 -2.762,0 -5,-2.24 -5,-5 0,-2.76 2.238,-5 5,-5" /><path
         id="path82"
         style="fill:#100f0d;fill-opacity:1;fill-rule:nonzero;stroke:none"
         d="m 280,775.16 c 22.09,0 40,17.91 40,40 0,22.094 -17.91,40 -40,40 -22.094,0 -40,-17.906 -40,-40 0,-22.09 17.906,-40 40,-40" /><path
         id="path84"
         style="fill:#100f0d;fill-opacity:1;fill-rule:nonzero;stroke:none"
         d="m 280,885.16 c 16.57,0 30,13.43 30,30 0,16.57 -13.43,30 -30,30 -16.57,0 -30,-13.43 -30,-30 0,-16.57 13.43,-30 30,-30" /><path
         id="path86"
         style="fill:#100f0d;fill-opacity:1;fill-rule:nonzero;stroke:none"
         d="m 280,995.16 c 11.047,0 20,8.95 20,20 0,11.05 -8.953,20 -20,20 -11.047,0 -20,-8.95 -20,-20 0,-11.05 8.953,-20 20,-20" /><path
         id="path88"
         style="fill:#100f0d;fill-opacity:1;fill-rule:nonzero;stroke:none"
         d="m 280,1105.16 c 5.523,0 10,4.48 10,10 0,5.52 -4.477,10 -10,10 -5.523,0 -10,-4.48 -10,-10 0,-5.52 4.477,-10 10,-10" /><path
         id="path90"
         style="fill:#100f0d;fill-opacity:1;fill-rule:nonzero;stroke:none"
         d="m 280,1210.16 c 2.762,0 5,2.24 5,5 0,2.76 -2.238,5 -5,5 -2.762,0 -5,-2.24 -5,-5 0,-2.76 2.238,-5 5,-5" /><path
         id="path92"
         style="fill:#100f0d;fill-opacity:1;fill-rule:nonzero;stroke:none"
         d="m 380,585.16 c 16.57,0 30,13.43 30,30 0,16.57 -13.43,30 -30,30 -16.57,0 -30,-13.43 -30,-30 0,-16.57 13.43,-30 30,-30" /><path
         id="path94"
         style="fill:#100f0d;fill-opacity:1;fill-rule:nonzero;stroke:none"
         d="m 380,695.16 c 11.047,0 20,8.953 20,20 0,11.047 -8.953,20 -20,20 -11.047,0 -20,-8.953 -20,-20 0,-11.047 8.953,-20 20,-20" /><path
         id="path96"
         style="fill:#100f0d;fill-opacity:1;fill-rule:nonzero;stroke:none"
         d="m 380,805.16 c 5.523,0 10,4.477 10,10 0,5.524 -4.477,10 -10,10 -5.523,0 -10,-4.476 -10,-10 0,-5.523 4.477,-10 10,-10" /><path
         id="path98"
         style="fill:#100f0d;fill-opacity:1;fill-rule:nonzero;stroke:none"
         d="m 380,910.16 c 2.762,0 5,2.238 5,5 0,2.762 -2.238,5 -5,5 -2.762,0 -5,-2.238 -5,-5 0,-2.762 2.238,-5 5,-5" /><path
         id="path100"
         style="fill:#100f0d;fill-opacity:1;fill-rule:nonzero;stroke:none"
         d="m 480,275.16 c 22.09,0 40,17.91 40,40 0,22.094 -17.91,40 -40,40 -22.094,0 -40,-17.906 -40,-40 0,-22.09 17.906,-40 40,-40" /><path
         id="path102"
         style="fill:#100f0d;fill-opacity:1;fill-rule:nonzero;stroke:none"
         d="m 480,385.16 c 16.57,0 30,13.43 30,30 0,16.57 -13.43,30 -30,30 -16.57,0 -30,-13.43 -30,-30 0,-16.57 13.43,-30 30,-30" /><path
         id="path104"
         style="fill:#100f0d;fill-opacity:1;fill-rule:nonzero;stroke:none"
         d="m 480,495.16 c 11.047,0 20,8.953 20,20 0,11.047 -8.953,20 -20,20 -11.047,0 -20,-8.953 -20,-20 0,-11.047 8.953,-20 20,-20" /><path
         id="path106"
         style="fill:#100f0d;fill-opacity:1;fill-rule:nonzero;stroke:none"
         d="m 480,605.16 c 5.523,0 10,4.477 10,10 0,5.524 -4.477,10 -10,10 -5.523,0 -10,-4.476 -10,-10 0,-5.523 4.477,-10 10,-10" /><path
         id="path108"
         style="fill:#100f0d;fill-opacity:1;fill-rule:nonzero;stroke:none"
         d="m 480,710.16 c 2.762,0 5,2.238 5,5 0,2.762 -2.238,5 -5,5 -2.762,0 -5,-2.238 -5,-5 0,-2.762 2.238,-5 5,-5" /><path
         id="path110"
         style="fill:#100f0d;fill-opacity:1;fill-rule:nonzero;stroke:none"
         d="m 1580,675.16 c 22.09,0 40,17.91 40,40 0,22.094 -17.91,40 -40,40 -22.09,0 -40,-17.906 -40,-40 0,-22.09 17.91,-40 40,-40" /><path
         id="path112"
         style="fill:#100f0d;fill-opacity:1;fill-rule:nonzero;stroke:none"
         d="m 1580,785.16 c 16.57,0 30,13.43 30,30 0,16.57 -13.43,30 -30,30 -16.57,0 -30,-13.43 -30,-30 0,-16.57 13.43,-30 30,-30" /><path
         id="path114"
         style="fill:#100f0d;fill-opacity:1;fill-rule:nonzero;stroke:none"
         d="m 1580,895.16 c 11.05,0 20,8.953 20,20 0,11.047 -8.95,20 -20,20 -11.05,0 -20,-8.953 -20,-20 0,-11.047 8.95,-20 20,-20" /><path
         id="path116"
         style="fill:#100f0d;fill-opacity:1;fill-rule:nonzero;stroke:none"
         d="m 1580,1005.16 c 5.52,0 10,4.48 10,10 0,5.52 -4.48,10 -10,10 -5.52,0 -10,-4.48 -10,-10 0,-5.52 4.48,-10 10,-10" /><path
         id="path118"
         style="fill:#100f0d;fill-opacity:1;fill-rule:nonzero;stroke:none"
         d="m 1580,1110.16 c 2.76,0 5,2.24 5,5 0,2.76 -2.24,5 -5,5 -2.76,0 -5,-2.24 -5,-5 0,-2.76 2.24,-5 5,-5" /><path
         id="path120"
         style="fill:#100f0d;fill-opacity:1;fill-rule:nonzero;stroke:none"
         d="m 1680,575.16 c 22.09,0 40,17.91 40,40 0,22.094 -17.91,40 -40,40 -22.09,0 -40,-17.906 -40,-40 0,-22.09 17.91,-40 40,-40" /><path
         id="path122"
         style="fill:#100f0d;fill-opacity:1;fill-rule:nonzero;stroke:none"
         d="m 1680,685.16 c 16.57,0 30,13.43 30,30 0,16.57 -13.43,30 -30,30 -16.57,0 -30,-13.43 -30,-30 0,-16.57 13.43,-30 30,-30" /><path
         id="path124"
         style="fill:#100f0d;fill-opacity:1;fill-rule:nonzero;stroke:none"
         d="m 1680,795.16 c 11.05,0 20,8.953 20,20 0,11.047 -8.95,20 -20,20 -11.05,0 -20,-8.953 -20,-20 0,-11.047 8.95,-20 20,-20" /><path
         id="path126"
         style="fill:#100f0d;fill-opacity:1;fill-rule:nonzero;stroke:none"
         d="m 1680,905.16 c 5.52,0 10,4.477 10,10 0,5.524 -4.48,10 -10,10 -5.52,0 -10,-4.476 -10,-10 0,-5.523 4.48,-10 10,-10" /><path
         id="path128"
         style="fill:#100f0d;fill-opacity:1;fill-rule:nonzero;stroke:none"
         d="m 1680,1010.16 c 2.76,0 5,2.24 5,5 0,2.76 -2.24,5 -5,5 -2.76,0 -5,-2.24 -5,-5 0,-2.76 2.24,-5 5,-5" /><path
         id="path130"
         style="fill:#100f0d;fill-opacity:1;fill-rule:nonzero;stroke:none"
         d="m 1780,375.16 c 22.09,0 40,17.91 40,40 0,22.094 -17.91,40 -40,40 -22.09,0 -40,-17.906 -40,-40 0,-22.09 17.91,-40 40,-40" /><path
         id="path132"
         style="fill:#100f0d;fill-opacity:1;fill-rule:nonzero;stroke:none"
         d="m 1780,485.16 c 16.57,0 30,13.43 30,30 0,16.57 -13.43,30 -30,30 -16.57,0 -30,-13.43 -30,-30 0,-16.57 13.43,-30 30,-30" /><path
         id="path134"
         style="fill:#100f0d;fill-opacity:1;fill-rule:nonzero;stroke:none"
         d="m 1780,595.16 c 11.05,0 20,8.953 20,20 0,11.047 -8.95,20 -20,20 -11.05,0 -20,-8.953 -20,-20 0,-11.047 8.95,-20 20,-20" /><path
         id="path136"
         style="fill:#100f0d;fill-opacity:1;fill-rule:nonzero;stroke:none"
         d="m 1780,705.16 c 5.52,0 10,4.477 10,10 0,5.524 -4.48,10 -10,10 -5.52,0 -10,-4.476 -10,-10 0,-5.523 4.48,-10 10,-10" /><path
         id="path138"
         style="fill:#100f0d;fill-opacity:1;fill-rule:nonzero;stroke:none"
         d="m 1780,810.16 c 2.76,0 5,2.238 5,5 0,2.762 -2.24,5 -5,5 -2.76,0 -5,-2.238 -5,-5 0,-2.762 2.24,-5 5,-5" /><path
         id="path140"
         style="fill:#100f0d;fill-opacity:1;fill-rule:nonzero;stroke:none"
         d="m 1880,585.16 c 16.57,0 30,13.43 30,30 0,16.57 -13.43,30 -30,30 -16.57,0 -30,-13.43 -30,-30 0,-16.57 13.43,-30 30,-30" /><path
         id="path142"
         style="fill:#100f0d;fill-opacity:1;fill-rule:nonzero;stroke:none"
         d="m 1880,695.16 c 11.05,0 20,8.953 20,20 0,11.047 -8.95,20 -20,20 -11.05,0 -20,-8.953 -20,-20 0,-11.047 8.95,-20 20,-20" /><path
         id="path144"
         style="fill:#100f0d;fill-opacity:1;fill-rule:nonzero;stroke:none"
         d="m 1880,805.16 c 5.52,0 10,4.477 10,10 0,5.524 -4.48,10 -10,10 -5.52,0 -10,-4.476 -10,-10 0,-5.523 4.48,-10 10,-10" /><path
         id="path146"
         style="fill:#100f0d;fill-opacity:1;fill-rule:nonzero;stroke:none"
         d="m 1880,910.16 c 2.76,0 5,2.238 5,5 0,2.762 -2.24,5 -5,5 -2.76,0 -5,-2.238 -5,-5 0,-2.762 2.24,-5 5,-5" /><path
         id="path148"
         style="fill:#100f0d;fill-opacity:1;fill-rule:nonzero;stroke:none"
         d="m 1980,775.16 c 22.09,0 40,17.91 40,40 0,22.094 -17.91,40 -40,40 -22.09,0 -40,-17.906 -40,-40 0,-22.09 17.91,-40 40,-40" /><path
         id="path150"
         style="fill:#100f0d;fill-opacity:1;fill-rule:nonzero;stroke:none"
         d="m 1980,885.16 c 16.57,0 30,13.43 30,30 0,16.57 -13.43,30 -30,30 -16.57,0 -30,-13.43 -30,-30 0,-16.57 13.43,-30 30,-30" /><path
         id="path152"
         style="fill:#100f0d;fill-opacity:1;fill-rule:nonzero;stroke:none"
         d="m 1980,995.16 c 11.05,0 20,8.95 20,20 0,11.05 -8.95,20 -20,20 -11.05,0 -20,-8.95 -20,-20 0,-11.05 8.95,-20 20,-20" /><path
         id="path154"
         style="fill:#100f0d;fill-opacity:1;fill-rule:nonzero;stroke:none"
         d="m 1980,1105.16 c 5.52,0 10,4.48 10,10 0,5.52 -4.48,10 -10,10 -5.52,0 -10,-4.48 -10,-10 0,-5.52 4.48,-10 10,-10" /><path
         id="path156"
         style="fill:#100f0d;fill-opacity:1;fill-rule:nonzero;stroke:none"
         d="m 1980,1210.16 c 2.76,0 5,2.24 5,5 0,2.76 -2.24,5 -5,5 -2.76,0 -5,-2.24 -5,-5 0,-2.76 2.24,-5 5,-5" /><path
         id="path158"
         style="fill:#100f0d;fill-opacity:1;fill-rule:nonzero;stroke:none"
         d="m 1080,575.16 c 22.09,0 40,17.91 40,40 0,22.094 -17.91,40 -40,40 -22.09,0 -40,-17.906 -40,-40 0,-22.09 17.91,-40 40,-40" /><path
         id="path160"
         style="fill:#100f0d;fill-opacity:1;fill-rule:nonzero;stroke:none"
         d="m 1080,685.16 c 16.57,0 30,13.43 30,30 0,16.57 -13.43,30 -30,30 -16.57,0 -30,-13.43 -30,-30 0,-16.57 13.43,-30 30,-30" /><path
         id="path162"
         style="fill:#100f0d;fill-opacity:1;fill-rule:nonzero;stroke:none"
         d="m 1080,795.16 c 11.05,0 20,8.953 20,20 0,11.047 -8.95,20 -20,20 -11.05,0 -20,-8.953 -20,-20 0,-11.047 8.95,-20 20,-20" /><path
         id="path164"
         style="fill:#100f0d;fill-opacity:1;fill-rule:nonzero;stroke:none"
         d="m 1080,905.16 c 5.52,0 10,4.477 10,10 0,5.524 -4.48,10 -10,10 -5.52,0 -10,-4.476 -10,-10 0,-5.523 4.48,-10 10,-10" /><path
         id="path166"
         style="fill:#100f0d;fill-opacity:1;fill-rule:nonzero;stroke:none"
         d="m 1080,1010.16 c 2.76,0 5,2.24 5,5 0,2.76 -2.24,5 -5,5 -2.76,0 -5,-2.24 -5,-5 0,-2.76 2.24,-5 5,-5" /><path
         id="path168"
         style="fill:#100f0d;fill-opacity:1;fill-rule:nonzero;stroke:none"
         d="m 1180,375.16 c 22.09,0 40,17.91 40,40 0,22.094 -17.91,40 -40,40 -22.09,0 -40,-17.906 -40,-40 0,-22.09 17.91,-40 40,-40" /><path
         id="path170"
         style="fill:#100f0d;fill-opacity:1;fill-rule:nonzero;stroke:none"
         d="m 1180,485.16 c 16.57,0 30,13.43 30,30 0,16.57 -13.43,30 -30,30 -16.57,0 -30,-13.43 -30,-30 0,-16.57 13.43,-30 30,-30" /><path
         id="path172"
         style="fill:#100f0d;fill-opacity:1;fill-rule:nonzero;stroke:none"
         d="m 1180,595.16 c 11.05,0 20,8.953 20,20 0,11.047 -8.95,20 -20,20 -11.05,0 -20,-8.953 -20,-20 0,-11.047 8.95,-20 20,-20" /><path
         id="path174"
         style="fill:#100f0d;fill-opacity:1;fill-rule:nonzero;stroke:none"
         d="m 1180,705.16 c 5.52,0 10,4.477 10,10 0,5.524 -4.48,10 -10,10 -5.52,0 -10,-4.476 -10,-10 0,-5.523 4.48,-10 10,-10" /><path
         id="path176"
         style="fill:#100f0d;fill-opacity:1;fill-rule:nonzero;stroke:none"
         d="m 1180,810.16 c 2.76,0 5,2.238 5,5 0,2.762 -2.24,5 -5,5 -2.76,0 -5,-2.238 -5,-5 0,-2.762 2.24,-5 5,-5" /><path
         id="path178"
         style="fill:#100f0d;fill-opacity:1;fill-rule:nonzero;stroke:none"
         d="m 1280,575.16 c 22.09,0 40,17.91 40,40 0,22.094 -17.91,40 -40,40 -22.09,0 -40,-17.906 -40,-40 0,-22.09 17.91,-40 40,-40" /><path
         id="path180"
         style="fill:#100f0d;fill-opacity:1;fill-rule:nonzero;stroke:none"
         d="m 1280,685.16 c 16.57,0 30,13.43 30,30 0,16.57 -13.43,30 -30,30 -16.57,0 -30,-13.43 -30,-30 0,-16.57 13.43,-30 30,-30" /><path
         id="path182"
         style="fill:#100f0d;fill-opacity:1;fill-rule:nonzero;stroke:none"
         d="m 1280,795.16 c 11.05,0 20,8.953 20,20 0,11.047 -8.95,20 -20,20 -11.05,0 -20,-8.953 -20,-20 0,-11.047 8.95,-20 20,-20" /><path
         id="path184"
         style="fill:#100f0d;fill-opacity:1;fill-rule:nonzero;stroke:none"
         d="m 1280,905.16 c 5.52,0 10,4.477 10,10 0,5.524 -4.48,10 -10,10 -5.52,0 -10,-4.476 -10,-10 0,-5.523 4.48,-10 10,-10" /><path
         id="path186"
         style="fill:#100f0d;fill-opacity:1;fill-rule:nonzero;stroke:none"
         d="m 1280,1010.16 c 2.76,0 5,2.24 5,5 0,2.76 -2.24,5 -5,5 -2.76,0 -5,-2.24 -5,-5 0,-2.76 2.24,-5 5,-5" /><path
         id="path188"
         style="fill:#100f0d;fill-opacity:1;fill-rule:nonzero;stroke:none"
         d="m 1380,675.16 c 22.09,0 40,17.91 40,40 0,22.094 -17.91,40 -40,40 -22.09,0 -40,-17.906 -40,-40 0,-22.09 17.91,-40 40,-40" /><path
         id="path190"
         style="fill:#100f0d;fill-opacity:1;fill-rule:nonzero;stroke:none"
         d="m 1380,785.16 c 16.57,0 30,13.43 30,30 0,16.57 -13.43,30 -30,30 -16.57,0 -30,-13.43 -30,-30 0,-16.57 13.43,-30 30,-30" /><path
         id="path192"
         style="fill:#100f0d;fill-opacity:1;fill-rule:nonzero;stroke:none"
         d="m 1380,895.16 c 11.05,0 20,8.953 20,20 0,11.047 -8.95,20 -20,20 -11.05,0 -20,-8.953 -20,-20 0,-11.047 8.95,-20 20,-20" /><path
         id="path194"
         style="fill:#100f0d;fill-opacity:1;fill-rule:nonzero;stroke:none"
         d="m 1380,1005.16 c 5.52,0 10,4.48 10,10 0,5.52 -4.48,10 -10,10 -5.52,0 -10,-4.48 -10,-10 0,-5.52 4.48,-10 10,-10" /><path
         id="path196"
         style="fill:#100f0d;fill-opacity:1;fill-rule:nonzero;stroke:none"
         d="m 1380,1110.16 c 2.76,0 5,2.24 5,5 0,2.76 -2.24,5 -5,5 -2.76,0 -5,-2.24 -5,-5 0,-2.76 2.24,-5 5,-5" /><path
         id="path198"
         style="fill:#100f0d;fill-opacity:1;fill-rule:nonzero;stroke:none"
         d="m 1480,475.16 c 22.09,0 40,17.91 40,40 0,22.094 -17.91,40 -40,40 -22.09,0 -40,-17.906 -40,-40 0,-22.09 17.91,-40 40,-40" /><path
         id="path200"
         style="fill:#100f0d;fill-opacity:1;fill-rule:nonzero;stroke:none"
         d="m 1480,585.16 c 16.57,0 30,13.43 30,30 0,16.57 -13.43,30 -30,30 -16.57,0 -30,-13.43 -30,-30 0,-16.57 13.43,-30 30,-30" /><path
         id="path202"
         style="fill:#100f0d;fill-opacity:1;fill-rule:nonzero;stroke:none"
         d="m 1480,695.16 c 11.05,0 20,8.953 20,20 0,11.047 -8.95,20 -20,20 -11.05,0 -20,-8.953 -20,-20 0,-11.047 8.95,-20 20,-20" /><path
         id="path204"
         style="fill:#100f0d;fill-opacity:1;fill-rule:nonzero;stroke:none"
         d="m 1480,805.16 c 5.52,0 10,4.477 10,10 0,5.524 -4.48,10 -10,10 -5.52,0 -10,-4.476 -10,-10 0,-5.523 4.48,-10 10,-10" /><path
         id="path206"
         style="fill:#100f0d;fill-opacity:1;fill-rule:nonzero;stroke:none"
         d="m 1480,910.16 c 2.76,0 5,2.238 5,5 0,2.762 -2.24,5 -5,5 -2.76,0 -5,-2.238 -5,-5 0,-2.762 2.24,-5 5,-5" /><path
         id="path208"
         style="fill:#100f0d;fill-opacity:1;fill-rule:nonzero;stroke:none"
         d="m 2580,575.16 c 22.09,0 40,17.91 40,40 0,22.094 -17.91,40 -40,40 -22.09,0 -40,-17.906 -40,-40 0,-22.09 17.91,-40 40,-40" /><path
         id="path210"
         style="fill:#100f0d;fill-opacity:1;fill-rule:nonzero;stroke:none"
         d="m 2580,685.16 c 16.57,0 30,13.43 30,30 0,16.57 -13.43,30 -30,30 -16.57,0 -30,-13.43 -30,-30 0,-16.57 13.43,-30 30,-30" /><path
         id="path212"
         style="fill:#100f0d;fill-opacity:1;fill-rule:nonzero;stroke:none"
         d="m 2580,795.16 c 11.05,0 20,8.953 20,20 0,11.047 -8.95,20 -20,20 -11.05,0 -20,-8.953 -20,-20 0,-11.047 8.95,-20 20,-20" /><path
         id="path214"
         style="fill:#100f0d;fill-opacity:1;fill-rule:nonzero;stroke:none"
         d="m 2580,905.16 c 5.52,0 10,4.477 10,10 0,5.524 -4.48,10 -10,10 -5.52,0 -10,-4.476 -10,-10 0,-5.523 4.48,-10 10,-10" /><path
         id="path216"
         style="fill:#100f0d;fill-opacity:1;fill-rule:nonzero;stroke:none"
         d="m 2580,1010.16 c 2.76,0 5,2.24 5,5 0,2.76 -2.24,5 -5,5 -2.76,0 -5,-2.24 -5,-5 0,-2.76 2.24,-5 5,-5" /><path
         id="path218"
         style="fill:#100f0d;fill-opacity:1;fill-rule:nonzero;stroke:none"
         d="m 2680,485.16 c 16.57,0 30,13.43 30,30 0,16.57 -13.43,30 -30,30 -16.57,0 -30,-13.43 -30,-30 0,-16.57 13.43,-30 30,-30" /><path
         id="path220"
         style="fill:#100f0d;fill-opacity:1;fill-rule:nonzero;stroke:none"
         d="m 2680,595.16 c 11.05,0 20,8.953 20,20 0,11.047 -8.95,20 -20,20 -11.05,0 -20,-8.953 -20,-20 0,-11.047 8.95,-20 20,-20" /><path
         id="path222"
         style="fill:#100f0d;fill-opacity:1;fill-rule:nonzero;stroke:none"
         d="m 2680,705.16 c 5.52,0 10,4.477 10,10 0,5.524 -4.48,10 -10,10 -5.52,0 -10,-4.476 -10,-10 0,-5.523 4.48,-10 10,-10" /><path
         id="path224"
         style="fill:#100f0d;fill-opacity:1;fill-rule:nonzero;stroke:none"
         d="m 2680,810.16 c 2.76,0 5,2.238 5,5 0,2.762 -2.24,5 -5,5 -2.76,0 -5,-2.238 -5,-5 0,-2.762 2.24,-5 5,-5" /><path
         id="path226"
         style="fill:#100f0d;fill-opacity:1;fill-rule:nonzero;stroke:none"
         d="m 2780,675.16 c 22.09,0 40,17.91 40,40 0,22.094 -17.91,40 -40,40 -22.09,0 -40,-17.906 -40,-40 0,-22.09 17.91,-40 40,-40" /><path
         id="path228"
         style="fill:#100f0d;fill-opacity:1;fill-rule:nonzero;stroke:none"
         d="m 2780,785.16 c 16.57,0 30,13.43 30,30 0,16.57 -13.43,30 -30,30 -16.57,0 -30,-13.43 -30,-30 0,-16.57 13.43,-30 30,-30" /><path
         id="path230"
         style="fill:#100f0d;fill-opacity:1;fill-rule:nonzero;stroke:none"
         d="m 2780,895.16 c 11.05,0 20,8.953 20,20 0,11.047 -8.95,20 -20,20 -11.05,0 -20,-8.953 -20,-20 0,-11.047 8.95,-20 20,-20" /><path
         id="path232"
         style="fill:#100f0d;fill-opacity:1;fill-rule:nonzero;stroke:none"
         d="m 2780,1005.16 c 5.52,0 10,4.48 10,10 0,5.52 -4.48,10 -10,10 -5.52,0 -10,-4.48 -10,-10 0,-5.52 4.48,-10 10,-10" /><path
         id="path234"
         style="fill:#100f0d;fill-opacity:1;fill-rule:nonzero;stroke:none"
         d="m 2780,1110.16 c 2.76,0 5,2.24 5,5 0,2.76 -2.24,5 -5,5 -2.76,0 -5,-2.24 -5,-5 0,-2.76 2.24,-5 5,-5" /><path
         id="path236"
         style="fill:#100f0d;fill-opacity:1;fill-rule:nonzero;stroke:none"
         d="m 2880,775.16 c 22.09,0 40,17.91 40,40 0,22.094 -17.91,40 -40,40 -22.09,0 -40,-17.906 -40,-40 0,-22.09 17.91,-40 40,-40" /><path
         id="path238"
         style="fill:#100f0d;fill-opacity:1;fill-rule:nonzero;stroke:none"
         d="m 2880,885.16 c 16.57,0 30,13.43 30,30 0,16.57 -13.43,30 -30,30 -16.57,0 -30,-13.43 -30,-30 0,-16.57 13.43,-30 30,-30" /><path
         id="path240"
         style="fill:#100f0d;fill-opacity:1;fill-rule:nonzero;stroke:none"
         d="m 2880,995.16 c 11.05,0 20,8.95 20,20 0,11.05 -8.95,20 -20,20 -11.05,0 -20,-8.95 -20,-20 0,-11.05 8.95,-20 20,-20" /><path
         id="path242"
         style="fill:#100f0d;fill-opacity:1;fill-rule:nonzero;stroke:none"
         d="m 2880,1105.16 c 5.52,0 10,4.48 10,10 0,5.52 -4.48,10 -10,10 -5.52,0 -10,-4.48 -10,-10 0,-5.52 4.48,-10 10,-10" /><path
         id="path244"
         style="fill:#100f0d;fill-opacity:1;fill-rule:nonzero;stroke:none"
         d="m 2880,1210.16 c 2.76,0 5,2.24 5,5 0,2.76 -2.24,5 -5,5 -2.76,0 -5,-2.24 -5,-5 0,-2.76 2.24,-5 5,-5" /><path
         id="path246"
         style="fill:#100f0d;fill-opacity:1;fill-rule:nonzero;stroke:none"
         d="m 2980,675.16 c 22.09,0 40,17.91 40,40 0,22.094 -17.91,40 -40,40 -22.09,0 -40,-17.906 -40,-40 0,-22.09 17.91,-40 40,-40" /><path
         id="path248"
         style="fill:#100f0d;fill-opacity:1;fill-rule:nonzero;stroke:none"
         d="m 2980,785.16 c 16.57,0 30,13.43 30,30 0,16.57 -13.43,30 -30,30 -16.57,0 -30,-13.43 -30,-30 0,-16.57 13.43,-30 30,-30" /><path
         id="path250"
         style="fill:#100f0d;fill-opacity:1;fill-rule:nonzero;stroke:none"
         d="m 2980,895.16 c 11.05,0 20,8.953 20,20 0,11.047 -8.95,20 -20,20 -11.05,0 -20,-8.953 -20,-20 0,-11.047 8.95,-20 20,-20" /><path
         id="path252"
         style="fill:#100f0d;fill-opacity:1;fill-rule:nonzero;stroke:none"
         d="m 2980,1005.16 c 5.52,0 10,4.48 10,10 0,5.52 -4.48,10 -10,10 -5.52,0 -10,-4.48 -10,-10 0,-5.52 4.48,-10 10,-10" /><path
         id="path254"
         style="fill:#100f0d;fill-opacity:1;fill-rule:nonzero;stroke:none"
         d="m 2980,1110.16 c 2.76,0 5,2.24 5,5 0,2.76 -2.24,5 -5,5 -2.76,0 -5,-2.24 -5,-5 0,-2.76 2.24,-5 5,-5" /><path
         id="path256"
         style="fill:#100f0d;fill-opacity:1;fill-rule:nonzero;stroke:none"
         d="m 2080,675.16 c 22.09,0 40,17.91 40,40 0,22.094 -17.91,40 -40,40 -22.09,0 -40,-17.906 -40,-40 0,-22.09 17.91,-40 40,-40" /><path
         id="path258"
         style="fill:#100f0d;fill-opacity:1;fill-rule:nonzero;stroke:none"
         d="m 2080,785.16 c 16.57,0 30,13.43 30,30 0,16.57 -13.43,30 -30,30 -16.57,0 -30,-13.43 -30,-30 0,-16.57 13.43,-30 30,-30" /><path
         id="path260"
         style="fill:#100f0d;fill-opacity:1;fill-rule:nonzero;stroke:none"
         d="m 2080,895.16 c 11.05,0 20,8.953 20,20 0,11.047 -8.95,20 -20,20 -11.05,0 -20,-8.953 -20,-20 0,-11.047 8.95,-20 20,-20" /><path
         id="path262"
         style="fill:#100f0d;fill-opacity:1;fill-rule:nonzero;stroke:none"
         d="m 2080,1005.16 c 5.52,0 10,4.48 10,10 0,5.52 -4.48,10 -10,10 -5.52,0 -10,-4.48 -10,-10 0,-5.52 4.48,-10 10,-10" /><path
         id="path264"
         style="fill:#100f0d;fill-opacity:1;fill-rule:nonzero;stroke:none"
         d="m 2080,1110.16 c 2.76,0 5,2.24 5,5 0,2.76 -2.24,5 -5,5 -2.76,0 -5,-2.24 -5,-5 0,-2.76 2.24,-5 5,-5" /><path
         id="path266"
         style="fill:#100f0d;fill-opacity:1;fill-rule:nonzero;stroke:none"
         d="m 2180,655.16 c -22.09,0 -40,-17.906 -40,-40 0,-22.09 17.91,-40 40,-40 22.09,0 40,17.91 40,40 0,22.094 -17.91,40 -40,40" /><path
         id="path268"
         style="fill:#100f0d;fill-opacity:1;fill-rule:nonzero;stroke:none"
         d="m 2180,685.16 c 16.57,0 30,13.43 30,30 0,16.57 -13.43,30 -30,30 -16.57,0 -30,-13.43 -30,-30 0,-16.57 13.43,-30 30,-30" /><path
         id="path270"
         style="fill:#100f0d;fill-opacity:1;fill-rule:nonzero;stroke:none"
         d="m 2180,795.16 c 11.05,0 20,8.953 20,20 0,11.047 -8.95,20 -20,20 -11.05,0 -20,-8.953 -20,-20 0,-11.047 8.95,-20 20,-20" /><path
         id="path272"
         style="fill:#100f0d;fill-opacity:1;fill-rule:nonzero;stroke:none"
         d="m 2180,905.16 c 5.52,0 10,4.477 10,10 0,5.524 -4.48,10 -10,10 -5.52,0 -10,-4.476 -10,-10 0,-5.523 4.48,-10 10,-10" /><path
         id="path274"
         style="fill:#100f0d;fill-opacity:1;fill-rule:nonzero;stroke:none"
         d="m 2180,1010.16 c 2.76,0 5,2.24 5,5 0,2.76 -2.24,5 -5,5 -2.76,0 -5,-2.24 -5,-5 0,-2.76 2.24,-5 5,-5" /><path
         id="path276"
         style="fill:#100f0d;fill-opacity:1;fill-rule:nonzero;stroke:none"
         d="m 2280,775.16 c 22.09,0 40,17.91 40,40 0,22.094 -17.91,40 -40,40 -22.09,0 -40,-17.906 -40,-40 0,-22.09 17.91,-40 40,-40" /><path
         id="path278"
         style="fill:#100f0d;fill-opacity:1;fill-rule:nonzero;stroke:none"
         d="m 2280,885.16 c 16.57,0 30,13.43 30,30 0,16.57 -13.43,30 -30,30 -16.57,0 -30,-13.43 -30,-30 0,-16.57 13.43,-30 30,-30" /><path
         id="path280"
         style="fill:#100f0d;fill-opacity:1;fill-rule:nonzero;stroke:none"
         d="m 2280,995.16 c 11.05,0 20,8.95 20,20 0,11.05 -8.95,20 -20,20 -11.05,0 -20,-8.95 -20,-20 0,-11.05 8.95,-20 20,-20" /><path
         id="path282"
         style="fill:#100f0d;fill-opacity:1;fill-rule:nonzero;stroke:none"
         d="m 2280,1105.16 c 5.52,0 10,4.48 10,10 0,5.52 -4.48,10 -10,10 -5.52,0 -10,-4.48 -10,-10 0,-5.52 4.48,-10 10,-10" /><path
         id="path284"
         style="fill:#100f0d;fill-opacity:1;fill-rule:nonzero;stroke:none"
         d="m 2280,1210.16 c 2.76,0 5,2.24 5,5 0,2.76 -2.24,5 -5,5 -2.76,0 -5,-2.24 -5,-5 0,-2.76 2.24,-5 5,-5" /><path
         id="path286"
         style="fill:#100f0d;fill-opacity:1;fill-rule:nonzero;stroke:none"
         d="m 2380,675.16 c 22.09,0 40,17.91 40,40 0,22.094 -17.91,40 -40,40 -22.09,0 -40,-17.906 -40,-40 0,-22.09 17.91,-40 40,-40" /><path
         id="path288"
         style="fill:#100f0d;fill-opacity:1;fill-rule:nonzero;stroke:none"
         d="m 2380,785.16 c 16.57,0 30,13.43 30,30 0,16.57 -13.43,30 -30,30 -16.57,0 -30,-13.43 -30,-30 0,-16.57 13.43,-30 30,-30" /><path
         id="path290"
         style="fill:#100f0d;fill-opacity:1;fill-rule:nonzero;stroke:none"
         d="m 2380,895.16 c 11.05,0 20,8.953 20,20 0,11.047 -8.95,20 -20,20 -11.05,0 -20,-8.953 -20,-20 0,-11.047 8.95,-20 20,-20" /><path
         id="path292"
         style="fill:#100f0d;fill-opacity:1;fill-rule:nonzero;stroke:none"
         d="m 2380,1005.16 c 5.52,0 10,4.48 10,10 0,5.52 -4.48,10 -10,10 -5.52,0 -10,-4.48 -10,-10 0,-5.52 4.48,-10 10,-10" /><path
         id="path294"
         style="fill:#100f0d;fill-opacity:1;fill-rule:nonzero;stroke:none"
         d="m 2380,1110.16 c 2.76,0 5,2.24 5,5 0,2.76 -2.24,5 -5,5 -2.76,0 -5,-2.24 -5,-5 0,-2.76 2.24,-5 5,-5" /><path
         id="path296"
         style="fill:#100f0d;fill-opacity:1;fill-rule:nonzero;stroke:none"
         d="m 2480,485.16 c 16.57,0 30,13.43 30,30 0,16.57 -13.43,30 -30,30 -16.57,0 -30,-13.43 -30,-30 0,-16.57 13.43,-30 30,-30" /><path
         id="path298"
         style="fill:#100f0d;fill-opacity:1;fill-rule:nonzero;stroke:none"
         d="m 2480,595.16 c 11.05,0 20,8.953 20,20 0,11.047 -8.95,20 -20,20 -11.05,0 -20,-8.953 -20,-20 0,-11.047 8.95,-20 20,-20" /><path
         id="path300"
         style="fill:#100f0d;fill-opacity:1;fill-rule:nonzero;stroke:none"
         d="m 2480,705.16 c 5.52,0 10,4.477 10,10 0,5.524 -4.48,10 -10,10 -5.52,0 -10,-4.476 -10,-10 0,-5.523 4.48,-10 10,-10" /><path
         id="path302"
         style="fill:#100f0d;fill-opacity:1;fill-rule:nonzero;stroke:none"
         d="m 2480,810.16 c 2.76,0 5,2.238 5,5 0,2.762 -2.24,5 -5,5 -2.76,0 -5,-2.238 -5,-5 0,-2.762 2.24,-5 5,-5" /><path
         id="path304"
         style="fill:#100f0d;fill-opacity:1;fill-rule:nonzero;stroke:none"
         d="m 3580,675.16 c 22.09,0 40,17.91 40,40 0,22.094 -17.91,40 -40,40 -22.09,0 -40,-17.906 -40,-40 0,-22.09 17.91,-40 40,-40" /><path
         id="path306"
         style="fill:#100f0d;fill-opacity:1;fill-rule:nonzero;stroke:none"
         d="m 3580,785.16 c 16.57,0 30,13.43 30,30 0,16.57 -13.43,30 -30,30 -16.57,0 -30,-13.43 -30,-30 0,-16.57 13.43,-30 30,-30" /><path
         id="path308"
         style="fill:#100f0d;fill-opacity:1;fill-rule:nonzero;stroke:none"
         d="m 3580,895.16 c 11.05,0 20,8.953 20,20 0,11.047 -8.95,20 -20,20 -11.05,0 -20,-8.953 -20,-20 0,-11.047 8.95,-20 20,-20" /><path
         id="path310"
         style="fill:#100f0d;fill-opacity:1;fill-rule:nonzero;stroke:none"
         d="m 3580,1005.16 c 5.52,0 10,4.48 10,10 0,5.52 -4.48,10 -10,10 -5.52,0 -10,-4.48 -10,-10 0,-5.52 4.48,-10 10,-10" /><path
         id="path312"
         style="fill:#100f0d;fill-opacity:1;fill-rule:nonzero;stroke:none"
         d="m 3580,1110.16 c 2.76,0 5,2.24 5,5 0,2.76 -2.24,5 -5,5 -2.76,0 -5,-2.24 -5,-5 0,-2.76 2.24,-5 5,-5" /><path
         id="path314"
         style="fill:#100f0d;fill-opacity:1;fill-rule:nonzero;stroke:none"
         d="m 3680,475.16 c 22.09,0 40,17.91 40,40 0,22.094 -17.91,40 -40,40 -22.09,0 -40,-17.906 -40,-40 0,-22.09 17.91,-40 40,-40" /><path
         id="path316"
         style="fill:#100f0d;fill-opacity:1;fill-rule:nonzero;stroke:none"
         d="m 3680,585.16 c 16.57,0 30,13.43 30,30 0,16.57 -13.43,30 -30,30 -16.57,0 -30,-13.43 -30,-30 0,-16.57 13.43,-30 30,-30" /><path
         id="path318"
         style="fill:#100f0d;fill-opacity:1;fill-rule:nonzero;stroke:none"
         d="m 3680,695.16 c 11.05,0 20,8.953 20,20 0,11.047 -8.95,20 -20,20 -11.05,0 -20,-8.953 -20,-20 0,-11.047 8.95,-20 20,-20" /><path
         id="path320"
         style="fill:#100f0d;fill-opacity:1;fill-rule:nonzero;stroke:none"
         d="m 3680,805.16 c 5.52,0 10,4.477 10,10 0,5.524 -4.48,10 -10,10 -5.52,0 -10,-4.476 -10,-10 0,-5.523 4.48,-10 10,-10" /><path
         id="path322"
         style="fill:#100f0d;fill-opacity:1;fill-rule:nonzero;stroke:none"
         d="m 3680,910.16 c 2.76,0 5,2.238 5,5 0,2.762 -2.24,5 -5,5 -2.76,0 -5,-2.238 -5,-5 0,-2.762 2.24,-5 5,-5" /><path
         id="path324"
         style="fill:#100f0d;fill-opacity:1;fill-rule:nonzero;stroke:none"
         d="m 3780,455.16 c -22.09,0 -40,-17.906 -40,-40 0,-22.09 17.91,-40 40,-40 22.09,0 40,17.91 40,40 0,22.094 -17.91,40 -40,40" /><path
         id="path326"
         style="fill:#100f0d;fill-opacity:1;fill-rule:nonzero;stroke:none"
         d="m 3780,485.16 c 16.57,0 30,13.43 30,30 0,16.57 -13.43,30 -30,30 -16.57,0 -30,-13.43 -30,-30 0,-16.57 13.43,-30 30,-30" /><path
         id="path328"
         style="fill:#100f0d;fill-opacity:1;fill-rule:nonzero;stroke:none"
         d="m 3780,595.16 c 11.05,0 20,8.953 20,20 0,11.047 -8.95,20 -20,20 -11.05,0 -20,-8.953 -20,-20 0,-11.047 8.95,-20 20,-20" /><path
         id="path330"
         style="fill:#100f0d;fill-opacity:1;fill-rule:nonzero;stroke:none"
         d="m 3780,705.16 c 5.52,0 10,4.477 10,10 0,5.524 -4.48,10 -10,10 -5.52,0 -10,-4.476 -10,-10 0,-5.523 4.48,-10 10,-10" /><path
         id="path332"
         style="fill:#100f0d;fill-opacity:1;fill-rule:nonzero;stroke:none"
         d="m 3780,810.16 c 2.76,0 5,2.238 5,5 0,2.762 -2.24,5 -5,5 -2.76,0 -5,-2.238 -5,-5 0,-2.762 2.24,-5 5,-5" /><path
         id="path334"
         style="fill:#100f0d;fill-opacity:1;fill-rule:nonzero;stroke:none"
         d="m 3880,655.16 c -22.09,0 -40,-17.906 -40,-40 0,-22.09 17.91,-40 40,-40 22.09,0 40,17.91 40,40 0,22.094 -17.91,40 -40,40" /><path
         id="path336"
         style="fill:#100f0d;fill-opacity:1;fill-rule:nonzero;stroke:none"
         d="m 3880,685.16 c 16.57,0 30,13.43 30,30 0,16.57 -13.43,30 -30,30 -16.57,0 -30,-13.43 -30,-30 0,-16.57 13.43,-30 30,-30" /><path
         id="path338"
         style="fill:#100f0d;fill-opacity:1;fill-rule:nonzero;stroke:none"
         d="m 3880,795.16 c 11.05,0 20,8.953 20,20 0,11.047 -8.95,20 -20,20 -11.05,0 -20,-8.953 -20,-20 0,-11.047 8.95,-20 20,-20" /><path
         id="path340"
         style="fill:#100f0d;fill-opacity:1;fill-rule:nonzero;stroke:none"
         d="m 3880,905.16 c 5.52,0 10,4.477 10,10 0,5.524 -4.48,10 -10,10 -5.52,0 -10,-4.476 -10,-10 0,-5.523 4.48,-10 10,-10" /><path
         id="path342"
         style="fill:#100f0d;fill-opacity:1;fill-rule:nonzero;stroke:none"
         d="m 3880,1010.16 c 2.76,0 5,2.24 5,5 0,2.76 -2.24,5 -5,5 -2.76,0 -5,-2.24 -5,-5 0,-2.76 2.24,-5 5,-5" /><path
         id="path344"
         style="fill:#100f0d;fill-opacity:1;fill-rule:nonzero;stroke:none"
         d="m 3980,775.16 c 22.09,0 40,17.91 40,40 0,22.094 -17.91,40 -40,40 -22.09,0 -40,-17.906 -40,-40 0,-22.09 17.91,-40 40,-40" /><path
         id="path346"
         style="fill:#100f0d;fill-opacity:1;fill-rule:nonzero;stroke:none"
         d="m 135.59,492.641 c 4.805,-9.446 12.445,-17.086 21.89,-21.891 -8.015,-3.25 -15.144,-8.187 -20.996,-14.363 -4.273,5.843 -9.414,10.984 -15.257,15.258 6.175,5.851 11.113,12.98 14.363,20.996 z m 488.82,-100 c 3.25,-8.016 8.188,-15.145 14.363,-20.996 -5.839,-4.274 -10.984,-9.415 -15.257,-15.258 -5.852,6.176 -12.981,11.113 -20.996,14.363 9.445,4.805 17.085,12.445 21.89,21.891 z m 100,100 c 3.25,-8.016 8.188,-15.145 14.363,-20.996 -5.839,-4.274 -10.984,-9.415 -15.257,-15.258 -5.852,6.176 -12.981,11.113 -20.996,14.363 9.445,4.805 17.085,12.445 21.89,21.891 z m 100,100 c 3.25,-8.016 8.188,-15.145 14.363,-20.996 -5.839,-4.274 -10.984,-9.415 -15.257,-15.258 -5.852,6.176 -12.981,11.113 -20.996,14.363 9.445,4.805 17.085,12.445 21.89,21.891 z m 500,-100 c 3.25,-8.016 8.19,-15.145 14.36,-20.996 -5.84,-4.274 -10.98,-9.415 -15.25,-15.258 -5.86,6.176 -12.98,11.113 -21,14.363 9.44,4.805 17.09,12.445 21.89,21.891 z m 311.18,0 c 4.8,-9.446 12.45,-17.086 21.89,-21.891 -8.02,-3.25 -15.14,-8.187 -21,-14.363 -4.27,5.843 -9.41,10.984 -15.25,15.258 6.17,5.851 11.11,12.98 14.36,20.996 z m 188.82,-200 c 3.25,-8.016 8.19,-15.145 14.36,-20.996 -5.84,-4.274 -10.98,-9.415 -15.25,-15.258 -5.86,6.176 -12.98,11.113 -21,14.363 9.44,4.805 17.09,12.445 21.89,21.891 z m 211.18,300 c 4.8,-9.446 12.45,-17.086 21.89,-21.891 -8.02,-3.25 -15.14,-8.187 -21,-14.363 -4.27,5.843 -9.41,10.984 -15.25,15.258 6.17,5.851 11.11,12.98 14.36,20.996 z m 100,-100 c 4.8,-9.446 12.45,-17.086 21.89,-21.891 -8.02,-3.25 -15.14,-8.187 -21,-14.363 -4.27,5.843 -9.41,10.984 -15.25,15.258 6.17,5.851 11.11,12.98 14.36,20.996 z m 200,100 c 4.8,-9.446 12.45,-17.086 21.89,-21.891 -8.02,-3.25 -15.14,-8.187 -21,-14.363 -4.27,5.843 -9.41,10.984 -15.25,15.258 6.17,5.851 11.11,12.98 14.36,20.996 z m 488.82,0 c 3.25,-8.016 8.19,-15.145 14.36,-20.996 -5.84,-4.274 -10.98,-9.415 -15.25,-15.258 -5.86,6.176 -12.98,11.113 -21,14.363 9.44,4.805 17.09,12.445 21.89,21.891 z m 111.18,0 c 4.8,-9.446 12.45,-17.086 21.89,-21.891 -8.02,-3.25 -15.14,-8.187 -21,-14.363 -4.27,5.843 -9.41,10.984 -15.25,15.258 6.17,5.851 11.11,12.98 14.36,20.996 z m 100,-100 c 4.8,-9.446 12.45,-17.086 21.89,-21.891 -8.02,-3.25 -15.14,-8.187 -21,-14.363 -4.27,5.843 -9.41,10.984 -15.25,15.258 6.17,5.851 11.11,12.98 14.36,20.996 z m 88.82,0 c 3.25,-8.016 8.19,-15.145 14.36,-20.996 -5.84,-4.274 -10.98,-9.415 -15.25,-15.258 -5.86,6.176 -12.98,11.113 -21,14.363 9.44,4.805 17.09,12.445 21.89,21.891 z m 211.18,-200 c 4.8,-9.446 12.45,-17.086 21.89,-21.891 -8.02,-3.25 -15.14,-8.187 -21,-14.363 -4.27,5.843 -9.41,10.984 -15.25,15.258 6.17,5.851 11.11,12.98 14.36,20.996 z m 188.82,200 c 3.25,-8.016 8.19,-15.145 14.36,-20.996 -5.84,-4.274 -10.98,-9.415 -15.25,-15.258 -5.86,6.176 -12.98,11.113 -21,14.363 9.44,4.805 17.09,12.445 21.89,21.891 z m 211.18,-200 c 4.8,-9.446 12.45,-17.086 21.89,-21.891 -8.02,-3.25 -15.14,-8.187 -21,-14.363 -4.27,5.843 -9.41,10.984 -15.25,15.258 6.17,5.851 11.11,12.98 14.36,20.996 z M 343.969,363.055 c -0.524,0.703 -1.024,1.422 -1.574,2.105 2.664,3.32 5.054,6.86 7.171,10.586 2.469,-1.91 5.106,-3.566 7.914,-4.996 -4.863,-1.973 -9.382,-4.582 -13.511,-7.695 z m 600,-100 c -0.524,0.703 -1.024,1.422 -1.574,2.105 2.664,3.32 5.054,6.86 7.171,10.586 2.469,-1.91 5.106,-3.566 7.914,-4.996 -4.863,-1.973 -9.382,-4.582 -13.511,-7.695 z M 1917.6,365.16 c -0.54,-0.683 -1.04,-1.402 -1.57,-2.105 -4.13,3.113 -8.65,5.722 -13.51,7.695 2.81,1.43 5.44,3.086 7.91,4.996 2.12,-3.726 4.51,-7.266 7.17,-10.586 z m 221.17,6.485 c -0.42,-0.313 -0.84,-0.629 -1.26,-0.95 -0.65,0.668 -1.3,1.328 -1.97,1.973 0.32,0.418 0.63,0.84 0.94,1.266 0.75,-0.786 1.51,-1.547 2.29,-2.289 z m 305.2,-108.59 c -0.53,0.703 -1.03,1.422 -1.57,2.105 2.66,3.32 5.05,6.86 7.17,10.586 2.47,-1.91 5.1,-3.566 7.91,-4.996 -4.86,-1.973 -9.38,-4.582 -13.51,-7.695 z m 273.63,2.105 c -0.54,-0.683 -1.04,-1.402 -1.57,-2.105 -4.13,3.113 -8.65,5.722 -13.51,7.695 2.81,1.43 5.44,3.086 7.91,4.996 2.12,-3.726 4.51,-7.266 7.17,-10.586 z m 221.17,206.485 c -0.42,-0.313 -0.84,-0.629 -1.26,-0.95 -0.65,0.668 -1.3,1.328 -1.97,1.973 0.32,0.418 0.63,0.84 0.94,1.266 0.75,-0.786 1.51,-1.547 2.29,-2.289 z m 100,-100 c -0.42,-0.313 -0.84,-0.629 -1.26,-0.95 -0.65,0.668 -1.3,1.328 -1.97,1.973 0.32,0.418 0.63,0.84 0.94,1.266 0.75,-0.786 1.51,-1.547 2.29,-2.289 z m 300,-200.004 c -0.42,-0.313 -0.84,-0.621 -1.26,-0.942 -0.65,0.672 -1.3,1.321 -1.97,1.973 0.32,0.418 0.63,0.84 0.94,1.258 0.75,-0.782 1.51,-1.539 2.29,-2.289 z m 400,0 c -0.42,-0.313 -0.84,-0.621 -1.26,-0.942 -0.65,0.672 -1.3,1.321 -1.97,1.973 0.32,0.418 0.63,0.84 0.94,1.258 0.75,-0.782 1.51,-1.539 2.29,-2.289 z m 179.14,311.265 c 1.89,-3.617 4.09,-7.027 6.55,-10.238 -3.07,-2.965 -5.86,-6.191 -8.43,-9.613 -4.13,3.113 -8.65,5.722 -13.51,7.695 5.93,3.016 11.12,7.137 15.39,12.156 z m -100,-200 c 1.89,-3.617 4.09,-7.027 6.55,-10.238 -3.07,-2.965 -5.86,-6.191 -8.43,-9.613 -4.13,3.113 -8.65,5.722 -13.51,7.695 5.93,3.016 11.12,7.137 15.39,12.156 z m -160.43,87.844 c -4.86,-1.973 -9.38,-4.582 -13.51,-7.695 -2.57,3.422 -5.36,6.648 -8.43,9.613 2.46,3.211 4.66,6.621 6.55,10.238 4.27,-5.019 9.46,-9.14 15.39,-12.156 z m -133.96,3.184 c 0.31,-0.426 0.62,-0.848 0.94,-1.266 -0.67,-0.645 -1.32,-1.305 -1.97,-1.973 -0.42,0.321 -0.84,0.637 -1.26,0.95 0.78,0.742 1.54,1.503 2.29,2.289 z m -105.61,-91.028 c 1.89,-3.617 4.09,-7.027 6.55,-10.238 -3.07,-2.965 -5.86,-6.191 -8.43,-9.613 -4.13,3.113 -8.65,5.722 -13.51,7.695 5.93,3.016 11.12,7.137 15.39,12.156 z m -160.43,87.844 c -4.86,-1.973 -9.38,-4.582 -13.51,-7.695 -2.57,3.422 -5.36,6.648 -8.43,9.613 2.46,3.211 4.66,6.621 6.55,10.238 4.27,-5.019 9.46,-9.14 15.39,-12.156 z m -133.96,3.184 c 0.31,-0.426 0.62,-0.848 0.94,-1.266 -0.67,-0.645 -1.32,-1.305 -1.97,-1.973 -0.42,0.321 -0.84,0.637 -1.26,0.95 0.78,0.742 1.54,1.503 2.29,2.289 z m -300,100 c 0.31,-0.426 0.62,-0.848 0.94,-1.266 -0.67,-0.645 -1.32,-1.305 -1.97,-1.973 -0.42,0.321 -0.84,0.637 -1.26,0.95 0.78,0.742 1.54,1.503 2.29,2.289 z M 2657.48,270.75 c -4.86,-1.973 -9.38,-4.582 -13.51,-7.695 -2.57,3.422 -5.36,6.648 -8.43,9.613 2.46,3.211 4.66,6.621 6.55,10.238 4.27,-5.019 9.46,-9.14 15.39,-12.156 z m -139.57,12.156 c 1.89,-3.617 4.09,-7.027 6.55,-10.238 -3.07,-2.965 -5.86,-6.191 -8.43,-9.613 -4.13,3.113 -8.65,5.722 -13.51,7.695 5.93,3.016 11.12,7.137 15.39,12.156 z m -181.43,191.028 c 0.75,-0.786 1.51,-1.547 2.29,-2.289 -0.42,-0.313 -0.84,-0.629 -1.26,-0.95 -0.65,0.668 -1.3,1.328 -1.97,1.973 0.32,0.418 0.63,0.84 0.94,1.266 z m -118.57,8.972 c 1.89,-3.617 4.09,-7.027 6.55,-10.238 -3.07,-2.965 -5.86,-6.191 -8.43,-9.613 -4.13,3.113 -8.65,5.722 -13.51,7.695 5.93,3.016 11.12,7.137 15.39,12.156 z m -181.43,-8.972 c 0.75,-0.786 1.51,-1.547 2.29,-2.289 -0.42,-0.313 -0.84,-0.629 -1.26,-0.95 -0.65,0.668 -1.3,1.328 -1.97,1.973 0.32,0.418 0.63,0.84 0.94,1.266 z M 1823.52,173.93 c 0.31,-0.418 0.62,-0.84 0.94,-1.258 -0.67,-0.652 -1.32,-1.301 -1.97,-1.973 -0.42,0.321 -0.84,0.629 -1.26,0.942 0.78,0.75 1.54,1.507 2.29,2.289 z m -66.04,96.82 c -4.86,-1.973 -9.38,-4.582 -13.51,-7.695 -2.57,3.422 -5.36,6.648 -8.43,9.613 2.46,3.211 4.66,6.621 6.55,10.238 4.27,-5.019 9.46,-9.14 15.39,-12.156 z m -121,103.184 c 0.75,-0.786 1.51,-1.547 2.29,-2.289 -0.42,-0.313 -0.84,-0.629 -1.26,-0.95 -0.65,0.668 -1.3,1.328 -1.97,1.973 0.32,0.418 0.63,0.84 0.94,1.266 z m -118.57,8.972 c 1.89,-3.617 4.09,-7.027 6.55,-10.238 -3.07,-2.965 -5.86,-6.191 -8.43,-9.613 -4.13,3.113 -8.65,5.722 -13.51,7.695 5.93,3.016 11.12,7.137 15.39,12.156 z m -60.43,-12.156 c -4.86,-1.973 -9.38,-4.582 -13.51,-7.695 -2.57,3.422 -5.36,6.648 -8.43,9.613 2.46,3.211 4.66,6.621 6.55,10.238 4.27,-5.019 9.46,-9.14 15.39,-12.156 z m -133.96,3.184 c 0.31,-0.426 0.62,-0.848 0.94,-1.266 -0.67,-0.645 -1.32,-1.305 -1.97,-1.973 -0.42,0.321 -0.84,0.637 -1.26,0.95 0.78,0.742 1.54,1.503 2.29,2.289 z m -105.61,-91.028 c 1.89,-3.617 4.09,-7.027 6.55,-10.238 -3.07,-2.965 -5.86,-6.191 -8.43,-9.613 -4.13,3.113 -8.65,5.722 -13.51,7.695 5.93,3.016 11.12,7.137 15.39,12.156 z m -60.43,-12.156 c -4.86,-1.973 -9.38,-4.582 -13.51,-7.695 -2.57,3.422 -5.36,6.648 -8.43,9.613 2.46,3.211 4.66,6.621 6.55,10.238 4.27,-5.019 9.46,-9.14 15.39,-12.156 z m -139.57,12.156 c 1.89,-3.617 4.09,-7.027 6.55,-10.238 -3.07,-2.965 -5.86,-6.191 -8.43,-9.613 -4.13,3.113 -8.65,5.722 -13.51,7.695 5.93,3.016 11.12,7.137 15.39,12.156 z M 823.516,473.934 c 0.312,-0.426 0.629,-0.848 0.949,-1.266 -0.668,-0.645 -1.328,-1.305 -1.973,-1.973 -0.418,0.321 -0.84,0.637 -1.265,0.95 0.785,0.742 1.546,1.503 2.289,2.289 z m -100,-100 c 0.312,-0.426 0.629,-0.848 0.949,-1.266 -0.668,-0.645 -1.328,-1.305 -1.973,-1.973 -0.418,0.321 -0.84,0.637 -1.265,0.95 0.785,0.742 1.546,1.503 2.289,2.289 z m -100,-100 c 0.312,-0.426 0.629,-0.848 0.949,-1.266 -0.668,-0.645 -1.328,-1.305 -1.973,-1.973 -0.418,0.321 -0.84,0.637 -1.265,0.95 0.785,0.742 1.546,1.503 2.289,2.289 z M 517.914,182.91 c 1.883,-3.621 4.09,-7.031 6.551,-10.238 -2.652,-2.563 -5.11,-5.313 -7.387,-8.211 -4.324,2.711 -8.961,4.949 -13.851,6.668 5.632,2.98 10.586,6.961 14.687,11.781 z m -61.137,-11.781 c -4.894,-1.719 -9.531,-3.957 -13.855,-6.668 -2.277,2.898 -4.734,5.648 -7.387,8.211 2.461,3.207 4.668,6.617 6.551,10.238 4.102,-4.82 9.055,-8.801 14.691,-11.781 z M 217.914,482.906 c 1.883,-3.617 4.09,-7.027 6.551,-10.238 -3.07,-2.965 -5.867,-6.191 -8.434,-9.613 -4.129,3.113 -8.648,5.722 -13.511,7.695 5.929,3.016 11.121,7.137 15.394,12.156 z m -81.43,-108.972 c 0.743,-0.786 1.504,-1.547 2.289,-2.289 -0.425,-0.313 -0.847,-0.629 -1.265,-0.95 -0.645,0.668 -1.305,1.328 -1.973,1.973 0.32,0.418 0.637,0.84 0.949,1.266 z M 4042.4,365.16 c 10.99,13.699 17.6,31.067 17.6,50 0,22.594 -9.4,42.961 -24.46,57.508 9.03,11.789 14.46,26.488 14.46,42.492 0,23.227 -11.36,43.75 -28.77,56.485 11.54,10.933 18.77,26.363 18.77,43.515 0,25.164 -15.51,46.68 -37.48,55.59 16.24,8.258 27.48,24.941 27.48,44.41 0,27.613 -22.39,50 -50,50 -27.61,0 -50,-22.387 -50,-50 0,-19.469 11.24,-36.152 27.48,-44.41 -21.97,-8.91 -37.48,-30.426 -37.48,-55.59 0,-17.152 7.24,-32.582 18.77,-43.515 -8.68,-6.352 -15.85,-14.622 -20.86,-24.231 -9.17,10.77 -22.66,17.746 -37.91,17.746 -27.61,0 -50,-22.387 -50,-50 0,-19.469 11.24,-36.152 27.48,-44.41 -21.97,-8.91 -37.48,-30.426 -37.48,-55.59 0,-17.152 7.24,-32.582 18.77,-43.515 -8.68,-6.352 -15.85,-14.622 -20.86,-24.231 -9.17,10.77 -22.66,17.746 -37.91,17.746 -19.47,0 -36.15,-11.238 -44.41,-27.48 -6.09,15.011 -18.06,26.984 -33.07,33.07 16.24,8.258 27.48,24.941 27.48,44.41 0,27.613 -22.39,50 -50,50 -15.25,0 -28.74,-6.976 -37.91,-17.746 -5.01,9.609 -12.18,17.879 -20.86,24.231 11.54,10.933 18.77,26.363 18.77,43.515 0,25.164 -15.51,46.68 -37.48,55.59 16.24,8.258 27.48,24.941 27.48,44.41 0,27.613 -22.39,50 -50,50 -27.61,0 -50,-22.387 -50,-50 0,-19.469 11.24,-36.152 27.48,-44.41 -15.01,-6.086 -26.98,-18.059 -33.07,-33.07 -8.26,16.242 -24.94,27.48 -44.41,27.48 -27.61,0 -50,-22.387 -50,-50 0,-19.469 11.24,-36.152 27.48,-44.41 -21.97,-8.91 -37.48,-30.426 -37.48,-55.59 0,-17.152 7.24,-32.582 18.77,-43.515 -8.68,-6.352 -15.85,-14.622 -20.86,-24.231 -9.17,10.77 -22.66,17.746 -37.91,17.746 -19.47,0 -36.15,-11.238 -44.41,-27.48 -6.09,15.011 -18.06,26.984 -33.07,33.07 16.24,8.258 27.48,24.941 27.48,44.41 0,27.613 -22.39,50 -50,50 -15.25,0 -28.74,-6.976 -37.91,-17.746 -5.01,9.609 -12.18,17.879 -20.86,24.231 11.54,10.933 18.77,26.363 18.77,43.515 0,25.164 -15.51,46.68 -37.48,55.59 16.24,8.258 27.48,24.941 27.48,44.41 0,27.613 -22.39,50 -50,50 -27.61,0 -50,-22.387 -50,-50 0,-19.469 11.24,-36.152 27.48,-44.41 -15.01,-6.086 -26.98,-18.059 -33.07,-33.07 -8.26,16.242 -24.94,27.48 -44.41,27.48 -19.47,0 -36.15,-11.238 -44.41,-27.48 -6.09,15.011 -18.06,26.984 -33.07,33.07 16.24,8.258 27.48,24.941 27.48,44.41 0,27.613 -22.39,50 -50,50 -19.47,0 -36.15,-11.238 -44.41,-27.48 -6.09,15.011 -18.06,26.984 -33.07,33.07 16.24,8.258 27.48,24.941 27.48,44.41 0,27.613 -22.39,50 -50,50 -27.61,0 -50,-22.387 -50,-50 0,-19.469 11.24,-36.152 27.48,-44.41 -15.01,-6.086 -26.98,-18.059 -33.07,-33.07 -8.26,16.242 -24.94,27.48 -44.41,27.48 -27.61,0 -50,-22.387 -50,-50 0,-19.469 11.24,-36.152 27.48,-44.41 -21.97,-8.91 -37.48,-30.426 -37.48,-55.59 0,-17.152 7.24,-32.582 18.77,-43.515 -11.71,-8.567 -20.67,-20.637 -25.28,-34.719 -7.13,10.957 -19.44,18.234 -33.49,18.234 -22.09,0 -40,-17.906 -40,-40 0,-22.09 17.91,-40 40,-40 14.05,0 26.36,7.278 33.49,18.235 2.48,-7.571 6.23,-14.54 10.97,-20.727 -5.49,-5.313 -10.22,-11.398 -14.03,-18.094 -8.45,6.539 -18.92,10.586 -30.43,10.586 -15.25,0 -28.74,-6.976 -37.91,-17.746 -5.01,9.609 -12.18,17.879 -20.86,24.231 11.54,10.933 18.77,26.363 18.77,43.515 0,25.164 -15.51,46.68 -37.48,55.59 16.24,8.258 27.48,24.941 27.48,44.41 0,27.613 -22.39,50 -50,50 -27.61,0 -50,-22.387 -50,-50 0,-19.469 11.24,-36.152 27.48,-44.41 -21.97,-8.91 -37.48,-30.426 -37.48,-55.59 0,-17.152 7.24,-32.582 18.77,-43.515 -8.68,-6.352 -15.85,-14.622 -20.86,-24.231 -9.17,10.77 -22.66,17.746 -37.91,17.746 -11.51,0 -21.98,-4.047 -30.43,-10.586 -3.81,6.696 -8.53,12.781 -14.03,18.094 4.74,6.187 8.49,13.156 10.97,20.727 7.13,-10.957 19.44,-18.235 33.49,-18.235 22.09,0 40,17.91 40,40 0,22.094 -17.91,40 -40,40 -14.05,0 -26.36,-7.277 -33.49,-18.234 -4.61,14.082 -13.57,26.152 -25.28,34.719 11.54,10.933 18.77,26.363 18.77,43.515 0,25.164 -15.51,46.68 -37.48,55.59 16.24,8.258 27.48,24.941 27.48,44.41 0,27.613 -22.39,50 -50,50 -19.47,0 -36.15,-11.238 -44.41,-27.48 -6.09,15.011 -18.06,26.984 -33.07,33.07 16.24,8.258 27.48,24.941 27.48,44.41 0,27.613 -22.39,50 -50,50 -27.61,0 -50,-22.387 -50,-50 0,-19.469 11.24,-36.152 27.48,-44.41 -21.97,-8.91 -37.48,-30.426 -37.48,-55.59 0,-17.152 7.24,-32.582 18.77,-43.515 -8.68,-6.352 -15.85,-14.622 -20.86,-24.231 -9.17,10.77 -22.66,17.746 -37.91,17.746 -19.47,0 -36.15,-11.238 -44.41,-27.48 -6.09,15.011 -18.06,26.984 -33.07,33.07 16.24,8.258 27.48,24.941 27.48,44.41 0,27.613 -22.39,50 -50,50 -19.47,0 -36.15,-11.238 -44.41,-27.48 -6.09,15.011 -18.06,26.984 -33.07,33.07 16.24,8.258 27.48,24.941 27.48,44.41 0,27.613 -22.39,50 -50,50 -27.61,0 -50,-22.387 -50,-50 0,-19.469 11.24,-36.152 27.48,-44.41 -21.97,-8.91 -37.48,-30.426 -37.48,-55.59 0,-17.152 7.24,-32.582 18.77,-43.515 -11.71,-8.567 -20.67,-20.637 -25.28,-34.719 -7.13,10.957 -19.44,18.234 -33.49,18.234 -22.09,0 -40,-17.906 -40,-40 0,-22.09 17.91,-40 40,-40 14.05,0 26.36,7.278 33.49,18.235 2.48,-7.571 6.23,-14.54 10.97,-20.727 -5.5,-5.313 -10.22,-11.398 -14.03,-18.094 -8.45,6.539 -18.92,10.586 -30.43,10.586 -27.61,0 -50,-22.387 -50,-50 0,-19.469 11.24,-36.152 27.48,-44.41 -15.01,-6.086 -26.98,-18.059 -33.07,-33.07 -8.26,16.242 -24.94,27.48 -44.41,27.48 -15.25,0 -28.74,-6.976 -37.91,-17.746 -5.01,9.609 -12.18,17.879 -20.86,24.231 11.54,10.933 18.77,26.363 18.77,43.515 0,25.164 -15.51,46.68 -37.48,55.59 16.24,8.258 27.48,24.941 27.48,44.41 0,27.613 -22.39,50 -50,50 -19.47,0 -36.15,-11.238 -44.41,-27.48 -6.09,15.011 -18.06,26.984 -33.07,33.07 16.24,8.258 27.48,24.941 27.48,44.41 0,27.613 -22.39,50 -50,50 -27.61,0 -50,-22.387 -50,-50 0,-19.469 11.24,-36.152 27.48,-44.41 -21.97,-8.91 -37.48,-30.426 -37.48,-55.59 0,-17.152 7.24,-32.582 18.77,-43.515 -8.68,-6.352 -15.85,-14.622 -20.86,-24.231 -9.17,10.77 -22.66,17.746 -37.91,17.746 -15.25,0 -28.74,-6.976 -37.91,-17.746 -5.01,9.609 -12.18,17.879 -20.86,24.231 11.54,10.933 18.77,26.363 18.77,43.515 0,25.164 -15.51,46.68 -37.48,55.59 16.24,8.258 27.48,24.941 27.48,44.41 0,27.613 -22.39,50 -50,50 -27.61,0 -50,-22.387 -50,-50 0,-19.469 11.24,-36.152 27.48,-44.41 -15.01,-6.086 -26.98,-18.059 -33.07,-33.07 -8.26,16.242 -24.94,27.48 -44.41,27.48 -27.61,0 -50,-22.387 -50,-50 0,-19.469 11.24,-36.152 27.48,-44.41 -21.97,-8.91 -37.48,-30.426 -37.48,-55.59 0,-17.152 7.24,-32.582 18.77,-43.515 -8.68,-6.352 -15.85,-14.622 -20.86,-24.231 -9.17,10.77 -22.66,17.746 -37.91,17.746 -15.25,0 -28.74,-6.976 -37.91,-17.746 -5.01,9.609 -12.18,17.879 -20.86,24.231 11.54,10.933 18.77,26.363 18.77,43.515 0,25.164 -15.51,46.68 -37.48,55.59 16.24,8.258 27.48,24.941 27.48,44.41 0,27.613 -22.39,50 -50,50 -27.61,0 -50,-22.387 -50,-50 0,-19.469 11.24,-36.152 27.48,-44.41 -21.97,-8.91 -37.48,-30.426 -37.48,-55.59 0,-17.152 7.24,-32.582 18.77,-43.515 -8.68,-6.352 -15.85,-14.622 -20.86,-24.231 -9.17,10.77 -22.656,17.746 -37.91,17.746 -11.512,0 -21.984,-4.047 -30.434,-10.586 -2.117,3.727 -4.507,7.266 -7.171,10.586 4.781,5.957 8.726,12.61 11.66,19.789 7,-6.019 15.992,-9.789 25.945,-9.789 22.09,0 40,17.91 40,40 0,22.094 -17.91,40 -40,40 -9.953,0 -18.945,-3.769 -25.945,-9.789 -4.239,10.371 -10.59,19.637 -18.52,27.297 9.035,11.789 14.465,26.488 14.465,42.492 0,23.227 -11.359,43.75 -28.773,56.485 11.539,10.933 18.773,26.363 18.773,43.515 0,25.164 -15.512,46.68 -37.48,55.59 16.242,8.258 27.48,24.941 27.48,44.41 0,27.613 -22.387,50 -50,50 -27.613,0 -50,-22.387 -50,-50 0,-19.469 11.238,-36.152 27.48,-44.41 -15.011,-6.086 -26.984,-18.059 -33.07,-33.07 -8.258,16.242 -24.941,27.48 -44.41,27.48 -27.613,0 -50,-22.387 -50,-50 0,-19.469 11.238,-36.152 27.48,-44.41 -15.011,-6.086 -26.984,-18.059 -33.07,-33.07 -8.258,16.242 -24.941,27.48 -44.41,27.48 -27.613,0 -50,-22.387 -50,-50 0,-19.469 11.238,-36.152 27.48,-44.41 -15.011,-6.086 -26.984,-18.059 -33.07,-33.07 -8.258,16.242 -24.941,27.48 -44.41,27.48 -27.613,0 -50,-22.387 -50,-50 0,-19.469 11.238,-36.152 27.48,-44.41 C 535.512,361.84 520,340.324 520,315.16 c 0,-17.152 7.234,-32.582 18.773,-43.515 -8.683,-6.352 -15.855,-14.622 -20.859,-24.231 -9.172,10.77 -22.66,17.746 -37.914,17.746 -15.254,0 -28.742,-6.976 -37.914,-17.746 -5,9.609 -12.176,17.879 -20.859,24.231 11.539,10.933 18.773,26.363 18.773,43.515 0,25.164 -15.512,46.68 -37.48,55.59 16.242,8.258 27.48,24.941 27.48,44.41 0,27.613 -22.387,50 -50,50 -11.512,0 -21.984,-4.047 -30.434,-10.586 -3.8,6.696 -8.531,12.781 -14.031,18.094 4.742,6.187 8.496,13.156 10.973,20.727 7.133,-10.957 19.441,-18.235 33.492,-18.235 22.09,0 40,17.91 40,40 0,22.094 -17.91,40 -40,40 -14.051,0 -26.359,-7.277 -33.492,-18.234 -4.61,14.082 -13.57,26.152 -25.281,34.719 11.539,10.933 18.773,26.363 18.773,43.515 0,25.164 -15.512,46.68 -37.48,55.59 16.242,8.258 27.48,24.941 27.48,44.41 0,27.613 -22.387,50 -50,50 -27.613,0 -50,-22.387 -50,-50 0,-19.469 11.238,-36.152 27.48,-44.41 C 235.512,661.84 220,640.324 220,615.16 c 0,-17.152 7.234,-32.582 18.773,-43.515 -8.683,-6.352 -15.859,-14.622 -20.859,-24.231 -9.172,10.77 -22.66,17.746 -37.914,17.746 -19.469,0 -36.152,-11.238 -44.41,-27.48 -6.086,15.011 -18.059,26.984 -33.07,33.07 16.242,8.258 27.48,24.941 27.48,44.41 0,27.613 -22.387,50 -50,50 -27.6133,0 -50,-22.387 -50,-50 0,-19.469 11.2383,-36.152 27.4805,-44.41 C 35.5078,561.84 20,540.324 20,515.16 20,498.008 27.2344,482.578 38.7734,471.645 21.3594,458.91 10,438.387 10,415.16 10,399.156 15.4297,384.457 24.4648,372.668 9.40234,358.121 0,337.754 0,315.16 0,296.227 6.61328,278.859 17.6055,265.16 6.61328,251.461 0,234.094 0,215.16 0,196.23 6.61328,178.859 17.6055,165.16 6.61328,151.461 0,134.09 0,115.16 V 0 h 4060 v 115.16 c 0,18.93 -6.61,36.301 -17.6,50 10.99,13.699 17.6,31.07 17.6,50 0,18.934 -6.61,36.301 -17.6,50 10.99,13.699 17.6,31.067 17.6,50 0,18.934 -6.61,36.301 -17.6,50" /><path
         id="path348"
         style="fill:#100f0d;fill-opacity:1;fill-rule:nonzero;stroke:none"
         d="m 3980,885.16 c 16.57,0 30,13.43 30,30 0,16.57 -13.43,30 -30,30 -16.57,0 -30,-13.43 -30,-30 0,-16.57 13.43,-30 30,-30" /><path
         id="path350"
         style="fill:#100f0d;fill-opacity:1;fill-rule:nonzero;stroke:none"
         d="m 3980,995.16 c 11.05,0 20,8.95 20,20 0,11.05 -8.95,20 -20,20 -11.05,0 -20,-8.95 -20,-20 0,-11.05 8.95,-20 20,-20" /><path
         id="path352"
         style="fill:#100f0d;fill-opacity:1;fill-rule:nonzero;stroke:none"
         d="m 3980,1105.16 c 5.52,0 10,4.48 10,10 0,5.52 -4.48,10 -10,10 -5.52,0 -10,-4.48 -10,-10 0,-5.52 4.48,-10 10,-10" /><path
         id="path354"
         style="fill:#100f0d;fill-opacity:1;fill-rule:nonzero;stroke:none"
         d="m 3980,1210.16 c 2.76,0 5,2.24 5,5 0,2.76 -2.24,5 -5,5 -2.76,0 -5,-2.24 -5,-5 0,-2.76 2.24,-5 5,-5" /><path
         id="path356"
         style="fill:#100f0d;fill-opacity:1;fill-rule:nonzero;stroke:none"
         d="m 3080,575.16 c 22.09,0 40,17.91 40,40 0,22.094 -17.91,40 -40,40 -22.09,0 -40,-17.906 -40,-40 0,-22.09 17.91,-40 40,-40" /><path
         id="path358"
         style="fill:#100f0d;fill-opacity:1;fill-rule:nonzero;stroke:none"
         d="m 3080,685.16 c 16.57,0 30,13.43 30,30 0,16.57 -13.43,30 -30,30 -16.57,0 -30,-13.43 -30,-30 0,-16.57 13.43,-30 30,-30" /><path
         id="path360"
         style="fill:#100f0d;fill-opacity:1;fill-rule:nonzero;stroke:none"
         d="m 3080,795.16 c 11.05,0 20,8.953 20,20 0,11.047 -8.95,20 -20,20 -11.05,0 -20,-8.953 -20,-20 0,-11.047 8.95,-20 20,-20" /><path
         id="path362"
         style="fill:#100f0d;fill-opacity:1;fill-rule:nonzero;stroke:none"
         d="m 3080,905.16 c 5.52,0 10,4.477 10,10 0,5.524 -4.48,10 -10,10 -5.52,0 -10,-4.476 -10,-10 0,-5.523 4.48,-10 10,-10" /><path
         id="path364"
         style="fill:#100f0d;fill-opacity:1;fill-rule:nonzero;stroke:none"
         d="m 3080,1010.16 c 2.76,0 5,2.24 5,5 0,2.76 -2.24,5 -5,5 -2.76,0 -5,-2.24 -5,-5 0,-2.76 2.24,-5 5,-5" /><path
         id="path366"
         style="fill:#100f0d;fill-opacity:1;fill-rule:nonzero;stroke:none"
         d="m 3180,675.16 c 22.09,0 40,17.91 40,40 0,22.094 -17.91,40 -40,40 -22.09,0 -40,-17.906 -40,-40 0,-22.09 17.91,-40 40,-40" /><path
         id="path368"
         style="fill:#100f0d;fill-opacity:1;fill-rule:nonzero;stroke:none"
         d="m 3180,785.16 c 16.57,0 30,13.43 30,30 0,16.57 -13.43,30 -30,30 -16.57,0 -30,-13.43 -30,-30 0,-16.57 13.43,-30 30,-30" /><path
         id="path370"
         style="fill:#100f0d;fill-opacity:1;fill-rule:nonzero;stroke:none"
         d="m 3180,895.16 c 11.05,0 20,8.953 20,20 0,11.047 -8.95,20 -20,20 -11.05,0 -20,-8.953 -20,-20 0,-11.047 8.95,-20 20,-20" /><path
         id="path372"
         style="fill:#100f0d;fill-opacity:1;fill-rule:nonzero;stroke:none"
         d="m 3180,1005.16 c 5.52,0 10,4.48 10,10 0,5.52 -4.48,10 -10,10 -5.52,0 -10,-4.48 -10,-10 0,-5.52 4.48,-10 10,-10" /><path
         id="path374"
         style="fill:#100f0d;fill-opacity:1;fill-rule:nonzero;stroke:none"
         d="m 3180,1110.16 c 2.76,0 5,2.24 5,5 0,2.76 -2.24,5 -5,5 -2.76,0 -5,-2.24 -5,-5 0,-2.76 2.24,-5 5,-5" /><path
         id="path376"
         style="fill:#100f0d;fill-opacity:1;fill-rule:nonzero;stroke:none"
         d="m 3280,475.16 c 22.09,0 40,17.91 40,40 0,22.094 -17.91,40 -40,40 -22.09,0 -40,-17.906 -40,-40 0,-22.09 17.91,-40 40,-40" /><path
         id="path378"
         style="fill:#100f0d;fill-opacity:1;fill-rule:nonzero;stroke:none"
         d="m 3280,585.16 c 16.57,0 30,13.43 30,30 0,16.57 -13.43,30 -30,30 -16.57,0 -30,-13.43 -30,-30 0,-16.57 13.43,-30 30,-30" /><path
         id="path380"
         style="fill:#100f0d;fill-opacity:1;fill-rule:nonzero;stroke:none"
         d="m 3280,695.16 c 11.05,0 20,8.953 20,20 0,11.047 -8.95,20 -20,20 -11.05,0 -20,-8.953 -20,-20 0,-11.047 8.95,-20 20,-20" /><path
         id="path382"
         style="fill:#100f0d;fill-opacity:1;fill-rule:nonzero;stroke:none"
         d="m 3280,805.16 c 5.52,0 10,4.477 10,10 0,5.524 -4.48,10 -10,10 -5.52,0 -10,-4.476 -10,-10 0,-5.523 4.48,-10 10,-10" /><path
         id="path384"
         style="fill:#100f0d;fill-opacity:1;fill-rule:nonzero;stroke:none"
         d="m 3280,910.16 c 2.76,0 5,2.238 5,5 0,2.762 -2.24,5 -5,5 -2.76,0 -5,-2.238 -5,-5 0,-2.762 2.24,-5 5,-5" /><path
         id="path386"
         style="fill:#100f0d;fill-opacity:1;fill-rule:nonzero;stroke:none"
         d="m 3380,455.16 c -22.09,0 -40,-17.906 -40,-40 0,-22.09 17.91,-40 40,-40 22.09,0 40,17.91 40,40 0,22.094 -17.91,40 -40,40" /><path
         id="path388"
         style="fill:#100f0d;fill-opacity:1;fill-rule:nonzero;stroke:none"
         d="m 3380,485.16 c 16.57,0 30,13.43 30,30 0,16.57 -13.43,30 -30,30 -16.57,0 -30,-13.43 -30,-30 0,-16.57 13.43,-30 30,-30" /><path
         id="path390"
         style="fill:#100f0d;fill-opacity:1;fill-rule:nonzero;stroke:none"
         d="m 3380,595.16 c 11.05,0 20,8.953 20,20 0,11.047 -8.95,20 -20,20 -11.05,0 -20,-8.953 -20,-20 0,-11.047 8.95,-20 20,-20" /><path
         id="path392"
         style="fill:#100f0d;fill-opacity:1;fill-rule:nonzero;stroke:none"
         d="m 3380,705.16 c 5.52,0 10,4.477 10,10 0,5.524 -4.48,10 -10,10 -5.52,0 -10,-4.476 -10,-10 0,-5.523 4.48,-10 10,-10" /><path
         id="path394"
         style="fill:#100f0d;fill-opacity:1;fill-rule:nonzero;stroke:none"
         d="m 3380,810.16 c 2.76,0 5,2.238 5,5 0,2.762 -2.24,5 -5,5 -2.76,0 -5,-2.238 -5,-5 0,-2.762 2.24,-5 5,-5" /><path
         id="path396"
         style="fill:#100f0d;fill-opacity:1;fill-rule:nonzero;stroke:none"
         d="m 3480,575.16 c 22.09,0 40,17.91 40,40 0,22.094 -17.91,40 -40,40 -22.09,0 -40,-17.906 -40,-40 0,-22.09 17.91,-40 40,-40" /><path
         id="path398"
         style="fill:#100f0d;fill-opacity:1;fill-rule:nonzero;stroke:none"
         d="m 3480,685.16 c 16.57,0 30,13.43 30,30 0,16.57 -13.43,30 -30,30 -16.57,0 -30,-13.43 -30,-30 0,-16.57 13.43,-30 30,-30" /><path
         id="path400"
         style="fill:#100f0d;fill-opacity:1;fill-rule:nonzero;stroke:none"
         d="m 3480,795.16 c 11.05,0 20,8.953 20,20 0,11.047 -8.95,20 -20,20 -11.05,0 -20,-8.953 -20,-20 0,-11.047 8.95,-20 20,-20" /><path
         id="path402"
         style="fill:#100f0d;fill-opacity:1;fill-rule:nonzero;stroke:none"
         d="m 3480,905.16 c 5.52,0 10,4.477 10,10 0,5.524 -4.48,10 -10,10 -5.52,0 -10,-4.476 -10,-10 0,-5.523 4.48,-10 10,-10" /><path
         id="path404"
         style="fill:#100f0d;fill-opacity:1;fill-rule:nonzero;stroke:none"
         d="m 3480,1010.16 c 2.76,0 5,2.24 5,5 0,2.76 -2.24,5 -5,5 -2.76,0 -5,-2.24 -5,-5 0,-2.76 2.24,-5 5,-5" /></g></g></svg>